<svg xmlns="http://www.w3.org/2000/svg" viewBox="0 0 1441 1057"><title>FULL_MAP</title><path d="M1197.282,301.25049l-6.209-205.5874C1162,98.5,1133.05322,74.283,1130.62476,45.781L929.01733,39.85767c-12.89954.625-25.97107,14.186-39.10254,14.66235,0,0-275.46149,4.75513-301.82556,4.77527-90.98041.06946-179.75745-5.82935-252.39453,59.45691C288.23615,161.408,268.189,218.69458,265.2536,282.90308,264.804,325.9856,256.58246,684.742,256.58246,684.742c-.39539,8.66376-22.82507,37.25354-23.28339,45.74646L230.33167,947.011C264.33331,950.83331,288,981.83331,284.5,1015.16065l218.98193-10.44885c13.53394-.8454,27.28986-21.61926,41.17883-22.29919,0,0,353.15479-4.80865,390.66309-4.68018,60.51892.20728,132.78223-21.83081,177.44983-62.37128,40.18457-36.47156,63.84741-85.5014,71.60718-139.50775.45288-3.15234,8.30078-53.26178,8.137-123.44574-.19971-85.55963-8.41675-201.92535-7.57666-311.64008C1185.02783,329.45459,1197.59534,312.26221,1197.282,301.25049Zm-141.94507,24.27563a8.10321,8.10321,0,0,1,14.29834-4.58081l30.17383,2.31116a8.10733,8.10733,0,1,1-.86438,11.28552l-30.17383-2.311a8.10328,8.10328,0,0,1-13.434-6.70483Zm14.60876,51.0929c19.71692-.163,40.99793-5.401,41.99292,14.6073,1.634,32.85718-.60437,77.621-.73377,109.97186-.0166,4.18365,1.17578,8.73547-2.33643,12.32532-8.424-.25116-18.00977-6.99634-25.28076-11.39484-12.11816-7.33081-19.72217-16.09436-19.561-28.87866.14429-11.45178,3.71924-24.675,2.45606-35.21887-1.30725-10.91016-3.86084-18.42407-10.822-29.07043C1046.63586,395.1582,1052.84961,376.76038,1069.94568,376.619Zm-89.83826-76.44556a8.10314,8.10314,0,0,1,15.0127.20374l27.8728,11.78589a8.1073,8.1073,0,1,1-4.4082,10.425L990.71191,310.802a8.10311,8.10311,0,0,1-10.60449-10.62854Zm-1.933,53.36035c15.23547,3.19922,31.43433,6.46387,45.96973,11.91882-8.88757,19.79858-11.62512,35.167-4.08191,45.3125,5.851,7.86938,13.83252,4.61719,17.8363,15.63611,3.63269,9.99731,3.06921,60.29834-15.43762,51.6333,1.4043-33.86121-4.69165-57.899-34.08984-78.57349-12.5498-8.82556-32.55261-15.1748-48.26392-11.28906-13.436,3.323-25.92749,10.54919-33.88184,9.27332-4.42456-.70972-7.44531,2.48376-8.444-3.72412-1.24207-7.72119,24.43445-35.06445,42.12317-54.14478C950.34766,347.68335,963.83423,350.52258,978.17444,353.53381Zm79.285,319.38409c-18.75146-6.39282-10.2439-45.29468-21.70947-61.41791-6.00439-8.44348-32.73364-21.76514-28.70215-31.50854,5.843-14.12177,32.99878-10.12708,42.50146-4.69543,23.20068,13.26129,15.85449,29.74371,13.47925,52.95673C1061.27344,645.40344,1066.5,676,1057.45947,672.91791ZM960.43542,555.25c3.86926,2.94629,9.71985,7.0033,14.70789,23.30347,1.64844,5.3869-.87122,11.86456-.02588,18.621,2.06128,16.47607,4.3468,34.60974-7.91321,42.62585-10.4054,6.80359-22.57312-5.441-31.01367-11.72693-10.89795-8.11615-19.3573-19.07336-35.3573-26.40668-7.14624-3.27539,5.96558-8.53815,10.41675-11.01917C940.63342,574.26947,933.75,550,920.5,527.75c-4.64624-14.32434,18.8031-19.82861,43.7356-20.84454,24.38892-.99384,50.76306-4.05688,51.5144,3.59094,1.57227,16.0036-20.97412,12.65753-40.428,9.89716-10.31348-1.46338-20.17749,2.325-23.822,8.10645C946.81421,535.93335,948.78418,546.378,960.43542,555.25ZM839.70667,686.677c-3.71057-10.62152-22.64587-10.75159-27.0094-23.94879-4.28735-12.96729,13.6001-18.06384,29.88721-16.12531,21.79956,2.59479,27.62915,14.417,53.78113,21.62292,23.49377,6.47351-11.49951,9.93774-19.24792,13.91882C862.91553,689.44153,851.25854,705.29242,854,722.17883c3.92053,24.14886,42.78442,45.72736,61.48047,30.02728,10.844-9.10632,16.96594-20.19812,17.31348-29.44244.40332-10.72186-5.27185-20.30371-6.0918-25.8858-.377-2.567,2.27271-3.28815,5.01245-3.88531,9.73267,6.628,17.47852,14.6806,23.83777,20.733,6.70789,6.384,11.87317,10.88031,16.20007,22.511,3.35034,9.00494,3.36548,30.95807-7.44067,32.403-7.71216,1.03119-16.87561-7.98468-23.2019-4.658-7.532,3.96075-2.8772,20.82465-7.54834,29.24927-9.65637,17.415-54.509-8.62738-65.13745-16.84576-17.11353-13.23285-26.60242-25.18719-30.26758-46.34235C836.3689,719.725,843.04712,696.23914,839.70667,686.677ZM748.25,722c-13.21179,2.46216-19.1864,28.80756-31.25,29.25-5.78094.212-12.478-11.56384-13.5-19-1.70331-12.39362,6.01135-24.5473,22.50983-31.03918a144.24627,144.24627,0,0,1,27.74554-8.17963c11.98511-2.12073,19.41565-2.90155,32.84753-.50452C809.42322,696.59949,811.74585,741.74591,798.5,765.5c-6.08252,10.90808-17.55566,15.101-24.75,14.75-4.36182-.21283-14.94336-4.63037-16.21387-6.5-5.34448-7.86426,12.20178-14.48163,14.21387-20.75C778.25,732.75,763.05981,719.24005,748.25,722Zm-73.8562-62.744c.28375,15.174,4.81433,20.81628.77289,27.244-2.21454,3.52209-11.40265,3.91962-14.5-2.16669-4.215-8.28253-.222-24.41327-9-31.83331-5.71405-4.83-23.51562,11.608-30.33337,8.83331C617.81512,659.90149,616.16669,649,616.16669,649S659.83942,607.9502,682.5,586.33331c16.718,18.41675,31.90289,34.21057,51.83325,46.83337,6.292,3.98474,12.072,17.30017,7.16675,23.16663-5.86206,7.01086-31.40131,3.3194-31.66669-6.16663-.33331-11.91669-1.3988-18.93091-10.02191-21.1604-7.00531-1.81122-17.826-1.48871-21.5614,2.99371C673.46942,637.73669,674.20233,649.02,674.3938,659.256ZM514,468c2.9696,6.8075,8.86072,12.14893,11.82141,21.5,2.96307,9.35822-5.66614,17.10034-17.99915,22.05579a88.11088,88.11088,0,0,1-30.74542,5.95416c-18.31714.14124-37.16077-3.9726-43.82684-11.33246,11.25-12.92749,32.26746-10.83118,32.26746-10.83118S493.60584,500.98035,495,484.25c1-12-5.541-17.57153-17.75-24.5,2.067-9.06079,2.86841-20.75183-1.25-32.25-6.26569-17.49316-10.24084-31.82275,7.75-45.75,9.79449,8.92749,13.69556,12.65759,25.36774,18.2666,13.30652,6.39453,16.50665,8.67163,31.70111,10.76563C542.65,417.79224,541.82593,421.56006,537.5,424c-8.75909,4.94019-15.67749,9.81006-20.75,15.5C509.47876,447.65649,509.651,458.03052,514,468Zm-29.75,99.375c-12.40466-14-35.625-2.625-35.625-2.625s-4.37933-5.44141-3.375-7.875c5.2948-12.82959,17.49213-19.37543,29.875-21.5,14.30981-2.4552,28.14087-2.05444,37.87073,11.768,5.8493,8.30963,7.02173,22.11951,5.12927,32.607-2.33905,12.9621-12.17517,18.47528-23,23.125-6.52771,2.80389-17-3.375-17-3.375S499.8172,584.94434,484.25,567.375ZM399,346.75c11.05255,15.68713,7.55438,33.66028,13.5,52.75,5.40527,17.35474,21.25,12.75,30.75,39.78381-11.3006,16.97961-27.092,11.57751-42.77649,1.02954-7.12933-4.79456-13.74536-18.94861-15.29858-28.06335-2.884-16.92407,5.18024-20.93665,6.82507-37.5C393.12531,363.41809,387,346.75,399,346.75Zm127.5-58.5c-1.96429,3.59058-8,13-7.92914,18.8125.08154,6.69067,7.42664,11.46924,7.02039,15.16553-.18469,1.68018-4.33185,5.26331-7.34564,4.63989-10.351-2.14111-25.23053-16.79785-33.08868-29.62134-7.53864-12.30225-9.48248-24.25964-7.39642-33.38586,2.61578-11.44373,24.00128-5.78625,34.11359-14.45251,10.60651-9.08972,10.69983-19.10034,26.72174-16.887,39.546,5.46362,67.151,33.10278,73.27191,73.12561,1.80878,11.82715,2.1,19.338,5.60138,26.974C620.2746,338.73877,625.14093,344.93713,634.5,353.5c10.05719,9.20166-.64313,21.25476-16.5,19.75-22.97119-2.17981-44.54773-7.85364-63.75-20.75-9.33057-6.26636-1.85114-8.33447,8.48468-9.85461,23.002-3.38318,32.25586-24.8822,28.97906-43.09583C589.43018,286.85632,582.08954,276.75867,564.75,274.5,550.53815,272.64868,533.30493,275.81128,526.5,288.25Zm22.25,233c4.01569-14.93707,16.50476-15.16449,30.73279-13.96527,14.51563,1.22357,21.56689,8.67365,28.01721,22.03314,11.24817,23.29657,10.2,29.9917-8.16669,45.18213C585.89111,585.61755,577,601.75116,565.25,601.75c-29.2511-.00287-19.565-14.36389-14.91669-27.41669C558.16882,552.33069,540.99445,550.09808,548.75,521.25ZM605,483.33325c-26.40424-15.28516-56.29645-17.32544-56.29645-17.32544S548.83032,455.425,558.16669,445c9.004-10.054,21.06653-10.396,35.16663-6,37.84955,11.80029,56.5528,34.5,74.08167,69.79181,4.4953,12.73627-20.24829,17.37488-20.24829,17.37488S623.9519,494.30444,605,483.33325Zm83.28613-189.675c13.3623,6.91187,28.45447-2.61987,45.50586-23.89014,8.51245,6.55737,14.99573,24.54614,11.53662,35.92883-1.54541,5.08582-37.76483,19.01978-51.33252,21.02515-13.101,1.9364-26.65094,4.28687-40.54773,1.65-13.37091-2.53687-16.18915-47.5553-12.99982-59.21521,3.869-14.14465,39.48645-33.48743,53.90375-20.65686C675.60052,266.2644,676.09869,287.354,688.28613,293.6582ZM898.5,493.5c1.25586,13.99957-9.65967,19.07367-22.16431,18.45935-12.02332-.59076-25.51587-6.36487-31.07056-18.22278-7.70789-16.45374-21.49976-20.75464-22.06494-26.88062-.21582-2.3374,1.49438-4.94067,6.20288-8.58618a177.70656,177.70656,0,0,0,23.28125-21.42041c16.66663-18.40625,19.442-29.54,31.14893-25.34937,9.50537,3.40259,14.535,6.61816,15.91333,14.49231,1.73364,9.90369-3.02686,23.33093-4.3335,36.99939C894.33386,474.27954,897.5481,482.88867,898.5,493.5Zm-140-66.66675c-16.59131-17.88965-45.33331-39-45.33331-39s-17.75775-10.07837-14.10339-17.657C704.2265,359.46826,740.60022,350.49768,738,360.75c-2.11914,8.35547-.1687,12.25842,2.47046,17.42578,4.62549,9.05688,14.43872,12.782,22.00439,9.65161,8.55151-3.53833,18.39185-34.41919,6.46765-55.59424,6.67517-3.02576,13.79248-5.73181,15.80725,4.78882-.79687,25.9209,14.417,37.478,33.771,18.93225,2.35938-2.26062,8.5271,9.23962,8.5271,9.23962S781.032,405.32275,758.5,426.83325ZM719.85211,563.44476c1.71649-1.37042,8.57788-1.90039,8.57788-1.90039,21.767,25.18182,27.939,30.64917,73.34723,57.66492-25.98108,4.64288-71.3288-21.72467-85.52881-46.73517C715.73236,572.16614,717.95276,564.96118,719.85211,563.44476ZM687.16669,436C671,420.16675,654.59064,414.37109,651,407.33325c-4.16669-8.1665-3.09406-12.772,11.66669-8.457,31.2442,9.13354,70.50006,57.79053,70.50006,57.79053l-14.20093,12.49451S697.892,445.4856,687.16669,436ZM809.47144,272.16113c-.738,11.44775-10.41565,27.96313-23.49414,35.14575-4.71069,2.58716-12.16187-6.998-12.144-12.47363.04-12.17358-.02075-28.262-4.43164-34.12549-13.23291-17.59045-38.61823-5.157-28.89331-32.93237,3.24841-9.27808,10.04-12.34045,16.92139-12.605,12.65991-.48657,24.00769,11.88135,34.991,28.275C800.19189,255.04443,810.27747,259.65869,809.47144,272.16113ZM785.81189,527.94049C780.37427,513.36841,798.1803,496.01691,806,502.25c17.25,13.75,9.615,24.99249,33.4209,36.09918C862.25,549,882.60657,542.19336,893.66675,549.83331,899.5376,553.88879,898.01367,560.30139,887,569.25c-24,19.5-47.73926,4.01776-68.02-9.99292C804.51794,549.26617,791.15137,542.25006,785.81189,527.94049ZM958.33325,456C978.5,465.83325,977.08643,445.4314,989,440.83325c3.90234-1.5061,6.855,15.86743,5.66675,20.3335-3.95593,14.8667-11.416,21.355-28,24.1665-15.0918,2.55872-31.78345-1.20435-40.3335-12.04334-12.871-16.317-4.26453-33.7644,8.16675-45.28992,3.89673-3.61279,11.68481-7.89795,14.728-8.06909,3.34717-.18823,8.28418,3.81909,8.28418,3.81909C942.46008,435.478,947.614,450.77319,958.33325,456ZM911.189,206.09778a8.07769,8.07769,0,0,1,.41223,6.28137l13.569,27.0498a8.10727,8.10727,0,1,1-10.11707,5.075l-13.569-27.04968a8.10557,8.10557,0,1,1,9.70483-11.35645ZM890.0127,126.40967a8.10333,8.10333,0,0,1,6.74561,13.41357l2.40259,30.16663a8.10728,8.10728,0,1,1-11.28284.89856l-2.40271-30.16663a8.10327,8.10327,0,0,1,4.53735-14.31213Zm-16.713,132.30249c8.59387,11.16675,14.96033,24.48413,23.53357,36.813-13.30444,12.61255-27.27246,20.738-40.998,31.9917-11.322,9.283-44.47046,11.36353-44.002-.67358.52612-13.5127,10.87817-20.50586,19.16357-31.29492a62.18626,62.18626,0,0,0,11.54333-29.136C843.57642,257.391,867.35669,250.99011,873.29968,258.71216ZM823.49854,127.86865c6.7102-4.88928,20.0802-4.82361,26.70459-3.73975,4.52112,12.67969,5.95093,24.63794,7.15784,36.75952a291.36848,291.36848,0,0,1,1.82019,37.739c-.31958,11.4978-1.97559,18.2804-6.34082,24.51147-5.22668,7.46069-14.3374,13.26343-29.689,13.689-5.11133-18.40137-6.29175-23.47607-20.09033-39.12671,10.76733-12.45117,21.13416-19.78857,23.07373-34.21729C827.47607,153.50488,826.25,139.66772,823.49854,127.86865Zm-121.99573-7.6875c10.90515-.42139,24.61029,3.41345,32.90051,3.9856,13.59668.93823,56.38062-4.09814,63.51453,12.28418,4.15808,9.54871,1.54016,17.74548-4.6853,26.94336-10.976,16.21631-29.19934,18.37646-42.76343,17.144-13.10266-1.19055-19.52325-17.34595-31.54321-26.26221-11.99512-8.89783-22.59534-5.54919-30.09259-13.77612C679.02881,129.74121,688.19476,120.69531,701.50281,120.18115Zm-94.66949,5.4856C608.14313,122.83911,644.518,126,666.5,126c2.795,6.37256,4.12939,12.11523,1.7005,18.33325-11.506,2.49976-28.12848,11.95532-39.7005,8.8335C614.77222,149.46313,604.62286,130.4386,606.83331,125.66675Zm-6.99292,68.5271c13.00067-3.60205,22.30731-10.53357,32.65961-15.5271,6.78186,19.52954,15.566,28.82959,28,23.33325,8.91736-3.94189,2.861-13.887,11.16669-26,5.004-7.298,16.69336-7.28638,21.16663-4.83325,15.5,8.5,14.6521,39.28589,13.17218,50.1665-8.95227,8.064-33.00952-4.79541-44.67218-2.5-6.12195,1.20508-17.71265,3.33643-22.08032,6-8.55634,5.218-17.68652,12.29-29.0863,8.554C602.449,230.858,599.62213,217.53979,588.33331,216.5c-12.66663-1.16675-50.87732-6.20154-59.16827-16.86963-2.0343-2.61768-5.87268-9.932-2.96039-12.20349,5.462-4.26013,23.78009,5.28333,41.84869,8.05566C581.1449,197.49121,591.29132,196.56238,599.84039,194.19385ZM497,130c9.91425-2.33154,72.69629-10.69092,76,1.83325,2.78925,10.57324,9,20.5,13.9845,31.66675-18.949,18.56885-27.4845-9.708-63.65118-6.83325C503.776,158.22119,494.5,153,497,130Zm-32,15.33325s9.81146,19.18579,14.4079,25.6189c6.63782,9.29028,20.9303,26.41162,24.75879,39.7146-6.78955,13.7063-17.98779,20.34167-32.33337,23.83325-22.60437,3.75244-45.47095-15.93506-43.5-34.16675C429.66669,188,423.52307,187.92957,422.57025,178.5,419,143.16675,465,145.33325,465,145.33325ZM339.04639,293.2312C342.598,254.63232,351.47479,223.25,366.5,223.25c24.5,0,52.74164,42.36963,66.75,77,9.94067,24.57446,44.71893,67.60046,9.75,86.62476-6.4549-25.56738-4.91669-51.82263-26.42029-70.03357C400.0733,302.8623,377.476,302.79907,369,321.25c-8.13153,17.70117-2.35687,29.64648-32,28.75C337.75,334.75,337.39771,311.149,339.04639,293.2312Zm35.33875,402.74933a8.07811,8.07811,0,0,1-5.69507-2.68176l-30.23724-1.22992a8.10733,8.10733,0,1,1,.46-11.30927l30.23724,1.23a8.10559,8.10559,0,1,1,5.235,13.991ZM372.25,641.49213c-14.7561-.58057-31.76337.6272-38.75-7.49261-3.85608-4.48157-2.95764-31.33429-3.08826-37.86853-.647-32.35828,4.75494-84.4165,6.42157-88.12256,19.48175-4.24384,39.40509,9.90894,43.66669,27.80878,6.477,27.2052-15.506,55.64355,9.00177,78.67017C397.78888,622.27362,383.92322,641.95129,372.25,641.49213ZM388,498.125c-15.59235,2.38379-23.93652-10.23022-37.75-17.625-19.48615-10.4314-21.4201-11.47327-22.13379-35.72607-.44476-15.11426-1.01379-40.00244,4.13379-54.02393,5.20654-14.18213,17-15.66089,34.13727-21.25366,7.85687,16.67871-29.585,58.99048-18.335,81.74048,6.94617,14.04675,18.08923,10.91357,33.08459,14.234C402.71063,470.24792,412.9375,494.3125,388,498.125Zm70.66742,217.75122a8.10319,8.10319,0,0,1-15.01221-.23962l-27.84454-11.85272a8.10729,8.10729,0,1,1,4.43317-10.41431l27.84448,11.85266a8.1032,8.1032,0,0,1,10.5791,10.654ZM494.5,679.08545C472.47943,664.83331,462.25,655,415.83331,650.83331,408,642.75818,438.25,623.5,420,603.75c-14.7688-15.98267-18.80542-25.6507-11.79517-65.26178C410.49823,534.24316,416.75,532,419.75,536.75c3.21594,33.97717,8.75812,65.9502,42.25,81.5,15.274,7.09149,33.683,9.40637,47.16669,6.41669,17.4137-3.86115,20.83331-22.66669,35.49365,1C544.66034,625.66669,511.13306,663.30164,494.5,679.08545Zm32.66852,142.44086a8.07812,8.07812,0,0,1,.09521-6.29419l-11.34558-28.05493a8.10734,8.10734,0,1,1,10.493-4.24347l11.34558,28.05493a8.1056,8.1056,0,1,1-10.58826,10.53766Zm20.36743,84.37134a8.10321,8.10321,0,0,1-6.83258-13.36938l-2.59857-30.15051a8.10728,8.10728,0,1,1,11.27679-.97186l2.59857,30.15045a8.10321,8.10321,0,0,1-4.44421,14.34131Zm.37439-182.71661c8.24066-7.80518,25.49457-31.27942,43.1507-44.09558,11.41333-8.28461,30.57086-.517,39.77094,10.70654-10.43024,10.86639-15.89,18.70215-21.582,32.04993-4.08075,9.56934-5.92651,20.47119-8.43939,30.90808C598.03931,764.25995,573.25,766,573.25,766,561.59985,751.27435,555.07867,739.41241,547.91034,723.181ZM620.25,851.5c-3.41693,9.72894,3.713,46.83557-3.08331,54.18787-4.41083,4.77167-21.271,1.56995-24.65558-2.84137-2.45489-3.19952-2.912-24.76312-5.34528-47.31927-1.98859-18.43439-5.62543-37.53174-2.71271-47.80951,2.12494-7.49792,14.363-20.39978,22.38019-19.88318,7.15106.46069,9.20367,7.88623,16.12323,16.95026C629.3028,813.098,640.85486,822.78937,640.5,829.75,640.01978,839.1698,623.29376,842.8335,620.25,851.5Zm30.99664-131.72827c4.04352-4.36206,11.80334-9.84882,17.53888-6.252,10.21539,6.40625-.04382,15.27423,1.66547,26.95087,2.3974,16.37787,15.76544,30.34668,31.88293,39.82636,12.46283,7.33044,7.43646,24.4538-4.93195,27.4975-24.87787,6.12183-46.38806-18.31525-54.9007-41.49475C635.0415,745.98712,638.027,734.03259,651.24664,719.77173ZM758.366,909.14056c-5.14136,0-31.73633.10669-57.12036.75989-24.14026.62122-47.1853,1.92792-49.64166-3.14191-6.56116-13.54175-7.23419-32.74615,1.48907-41.95441,7.27386-7.67828,20.2998-10.57806,32.47345-10.57806,27.18353,0,27.14594,14.87488,34.53229,20.68524,9.99243,7.86047,27.31006,12.44153,39.41394,16.27966C760.07434,898.20612,762.17529,901.87988,758.366,909.14056Zm21.98059-.08264c-2.8219-5.74518-1.74768-12.13373.44421-18.19562,14.73169-2.39868,32.291-6.14728,46.61084-7.85577,12.72925-1.51886,20.63281,14.47375,20.63281,27.05139C823.79443,910.05792,802.30371,909.05792,780.34656,909.05792Zm38.04944-63.1474c-6.28638-16.553-13.2522-27.66711-29.17761-23.756-15.35388,3.77063-14.233,20.71783-13.60168,35.41516-7.73608,2.095-22.68665-.09662-28.93005-4.73114-8.08716-6.00317-13.30981-19.1051-11.49158-29.29846,1.18628-6.65027,5.98877-22.39349,16.66772-19.02185,10.72339,3.386,20.6792,4.56433,30.32764,2.88446,14.71423-2.56177,28.71387-10.44519,43.63257-16.86389,6.93726-2.98474,11.87671-2.38379,17.6521,2.71436,9.94629,8.77979,21.23462,14.41315,33.025,18.85754,10.4801,3.95038,21.35681,6.96136,32.04065,10.40741,3.65308,1.17834,7.16638,2.83124,10.44507,4.14484.63965,5.32257-1.08948,8.81445-4.65735,14.32068-15.452-9.12018-30.94373-13.141-46.34143-12.56061C851.28882,829.05249,834.70142,835.09344,818.396,845.91052Zm135.42517,58.69958s-46.60706,1.06372-73.38782,1.20349c-2.408-15.51605-4.96143-22.64783-12.28992-34.38721,12.725-9.32074,26.00256-13.1438,37.15442-4.99719,18.10229,13.22388,38.22705,5.61145,47.99829,13.70294C957.31274,883.45831,953.82117,904.61011,953.82117,904.61011Zm71.67566-40.36938C1017.59277,881.55847,1004.10437,896.16608,992,888c-13.073-8.81958-15.76453-22.946-20.61719-36.24854-3.40332-9.32977-9.90222-17.238-13.06384-26.98969-4.87952-15.05017,14.38953-39.104,31.93909-23.03955,11.28857,10.33325,22.54614,17.05975,35.04443,25.61676,2.838,1.94318,5.56189,3.62476,6.41992,7.33429C1033.572,842.67023,1030.20019,853.9353,1025.49683,864.24072ZM1117.769,700.75085c-.07861,21.687.32471,49.20209-2.49146,62.763-3.44165,16.57239-9.79346,33.85779-25.31836,37.63153-12.16016,2.95581-27.29419-13.00256-36.7063-23.10022a47.708,47.708,0,0,1-12.59277-24.78271c-3.22852-17.76611-7.99853-36.42358-16.109-52.03564-5.35-10.29834-12.71838-18.14178-20.04724-27.54846C994.76147,661.17389,996.5,625.5,1006,626.75c11.28345,1.48468,5.62866,24.18683,11.5,37,6.51831,14.2251,20.81079,37.076,35.25,44,18.9596,9.09161,31.27417,1.45563,35-19.25,2.48682-13.81976,14.23132-25.691,25.00952-21.50458C1117.239,668.73535,1117.833,683.15369,1117.769,700.75085Zm2.35486-77.27063c-.59436,15.23718-15.91309,20.884-26.95959,19.76978-9.91431-1-5.64038-35.1427,2.08569-45,14.5-18.5,2-44.25-19.75-45.5-10.6792-.61377-19.94946-6.016-24-14.34637-5.96313-12.26324-2.84216-18.05066,16.75-14.15363,5.04651,1.00378,11.73633,5.582,20.92017,10.7511,10.28174,5.78687,24.9292,12.31427,26.71765,15.39545,4.07556,7.02173,3.36218,20.32684,3.5271,34.10345C1119.59314,599.38757,1120.46155,614.82574,1120.1239,623.48022Z" id="INNER_MAP"/><g style="opacity:0.5"><path d="M.5.5v1056h1440V.5ZM233.29907,730.48846c.45831-8.49292,22.888-37.0827,23.28339-45.74646,0,0,8.22156-358.75641,8.67114-401.83893,2.93542-64.2085,22.98254-121.49512,70.4411-164.15088,72.63709-65.28625,161.41412-59.38745,252.39453-59.45691C614.45331,59.27515,889.91479,54.52,889.91479,54.52c13.13147-.47632,26.203-14.03735,39.10254-14.66235L1130.62476,45.781C1133.05322,74.283,1162,98.5,1191.073,95.66309l6.209,205.5874c.31336,11.01172-12.25415,28.2041-12.34082,39.51709-.84009,109.71472,7.377,226.08044,7.57666,311.64008.16382,70.184-7.68408,120.2934-8.137,123.44574-7.75977,54.00635-31.42261,103.03619-71.60718,139.50775-44.6676,40.54047-116.93091,62.57855-177.44983,62.37128-37.5083-.12848-390.66309,4.68018-390.66309,4.68018-13.889.67993-27.6449,21.4538-41.17883,22.29919L284.5,1015.16065c3.5-33.32731-20.16667-64.32731-54.16834-68.14966Z" style="stroke:lime;stroke-miterlimit:10"/><path d="M564.75,274.5c17.33954,2.25867,24.68018,12.35632,26.96375,25.04956,3.27679,18.21362-5.97705,39.71265-28.97906,43.09583-10.33582,1.52014-17.81525,3.58826-8.48468,9.85461,19.20227,12.89636,40.77881,18.57019,63.75,20.75,15.85687,1.50476,26.55719-10.54834,16.5-19.75-9.35907-8.56287-14.2254-14.76123-17.03088-20.87915-3.5014-7.636-3.7926-15.14685-5.60138-26.974-6.12091-40.02283-33.726-67.662-73.27191-73.12561-16.02191-2.21338-16.11523,7.79724-26.72174,16.887-10.1123,8.66626-31.4978,3.00879-34.11359,14.45251-2.08606,9.12622-.14221,21.08362,7.39642,33.38586,7.85815,12.82349,22.73767,27.48022,33.08868,29.62134,3.01379.62341,7.16095-2.95972,7.34564-4.63989.40625-3.69629-6.93884-8.47485-7.02039-15.16553C518.5,301.25,524.53571,291.84058,526.5,288.25,533.30493,275.81128,550.53815,272.64868,564.75,274.5Z" style="stroke:lime;stroke-miterlimit:10"/><path d="M838.15649,730.04272c3.66516,21.15515,13.15405,33.1095,30.26758,46.34235,10.62842,8.21838,55.48108,34.2608,65.13745,16.84576,4.67114-8.42462.01636-25.28851,7.54834-29.24927,6.32629-3.32672,15.48975,5.68915,23.2019,4.658,10.80615-1.44489,10.791-23.398,7.44067-32.403-4.3269-11.63074-9.49219-16.127-16.20007-22.511-6.35925-6.05237-14.1051-14.105-23.83777-20.733-2.73975.59717-5.3894,1.3183-5.01245,3.88531.81995,5.58209,6.49512,15.16394,6.0918,25.8858-.34753,9.24432-6.46948,20.33612-17.31348,29.44244-18.696,15.70007-57.55994-5.87842-61.48047-30.02728-2.74146-16.88641,8.91553-32.7373,23.11768-40.03418,7.74841-3.98108,42.7417-7.44531,19.24792-13.91882-26.152-7.20593-31.98157-19.02814-53.78113-21.62292-16.28711-1.93854-34.17456,3.158-29.88721,16.12531,4.36353,13.1972,23.29883,13.32727,27.0094,23.94879C843.04712,696.23914,836.3689,719.725,838.15649,730.04272Z" style="stroke:lime;stroke-miterlimit:10"/><path d="M369,321.25c8.476-18.45093,31.0733-18.3877,47.57971-4.40881,21.5036,18.21094,19.96539,44.46619,26.42029,70.03357,34.96893-19.02429.19067-62.05029-9.75-86.62476-14.00836-34.63037-42.25-77-66.75-77-15.02521,0-23.902,31.38232-27.45361,69.9812C337.39771,311.149,337.75,334.75,337,350,366.64313,350.89648,360.86847,338.95117,369,321.25Z" style="stroke:lime;stroke-miterlimit:10"/><path d="M1112.75952,666.99542c-10.7782-4.18646-22.5227,7.68481-25.00952,21.50458-3.72583,20.70563-16.0404,28.34161-35,19.25-14.43921-6.924-28.73169-29.7749-35.25-44-5.87134-12.81317-.21655-35.51532-11.5-37-9.5-1.25-11.23853,34.42389-1.49609,46.92834,7.32886,9.40668,14.69727,17.25012,20.04724,27.54846,8.11047,15.61206,12.88049,34.26953,16.109,52.03564a47.708,47.708,0,0,0,12.59277,24.78271c9.41211,10.09766,24.54614,26.056,36.7063,23.10022,15.5249-3.77374,21.87671-21.05914,25.31836-37.63153,2.81616-13.56091,2.41284-41.076,2.49146-62.763C1117.833,683.15369,1117.239,668.73535,1112.75952,666.99542Z" style="stroke:lime;stroke-miterlimit:10"/><path d="M509.16669,624.66669C495.683,627.65637,477.274,625.34149,462,618.25c-33.49188-15.5498-39.03406-47.52283-42.25-81.5-3-4.75-9.25177-2.50684-11.54517,1.73822C401.19458,578.0993,405.2312,587.76733,420,603.75c18.25,19.75-12,39.00818-4.16669,47.08331C462.25,655,472.47943,664.83331,494.5,679.08545c16.63306-15.78381,50.16034-53.41876,50.16034-53.41876C530,602,526.58038,620.80554,509.16669,624.66669Z" style="stroke:lime;stroke-miterlimit:10"/><path d="M465.51746,495.34631S444.5,493.25,433.25,506.17749c6.66608,7.35986,25.5097,11.47369,43.82684,11.33246a88.11088,88.11088,0,0,0,30.74542-5.95416c12.333-4.95544,20.96222-12.69757,17.99915-22.05579C522.86072,480.14893,516.9696,474.8075,514,468c-4.349-9.96948-4.52124-20.34351,2.75-28.5,5.07251-5.68994,11.99091-10.55981,20.75-15.5,4.32593-2.43994,5.15-6.20776,3.31885-13.21777-15.19446-2.094-18.39459-4.37109-31.70111-10.76562-11.67218-5.609-15.57324-9.33911-25.36774-18.2666-17.99084,13.92725-14.01569,28.25684-7.75,45.75,4.11841,11.49817,3.317,23.18921,1.25,32.25,12.209,6.92847,18.75,12.5,17.75,24.5C493.60584,500.98035,465.51746,495.34631,465.51746,495.34631Z" style="stroke:lime;stroke-miterlimit:10"/><path d="M911.25,590.64752c-4.45117,2.481-17.563,7.74377-10.41675,11.01917,16,7.33331,24.45935,18.29053,35.3573,26.40668,8.44055,6.28595,20.60828,18.53052,31.01367,11.72693,12.26-8.01611,9.97449-26.14978,7.91321-42.62585-.84534-6.75641,1.67432-13.23407.02588-18.621-4.988-16.30017-10.83862-20.35718-14.70789-23.30347-11.65125-8.872-13.62122-19.31665-8.93542-26.75,3.64453-5.78149,13.50854-9.56982,23.822-8.10645,19.45386,2.76038,42.00024,6.10645,40.428-9.89716-.75134-7.64783-27.12549-4.58478-51.5144-3.59094-24.9325,1.01593-48.38184,6.5202-43.7356,20.84454C933.75,550,940.63342,574.26947,911.25,590.64752Z" style="stroke:lime;stroke-miterlimit:10"/><path d="M380.5,535.8172c-4.2616-17.89984-24.18494-32.05261-43.66669-27.80878-1.66663,3.70605-7.06854,55.76428-6.42157,88.12256.13062,6.53424-.76782,33.387,3.08826,37.86853,6.98663,8.11981,23.9939,6.912,38.75,7.49261,11.67322.45917,25.53888-19.21851,17.25177-27.00476C364.994,591.46075,386.977,563.0224,380.5,535.8172Z" style="stroke:lime;stroke-miterlimit:10"/><path d="M1066.48267,438.03113c1.26318,10.54382-2.31177,23.76709-2.45606,35.21887-.16113,12.7843,7.44287,21.54785,19.561,28.87866,7.271,4.3985,16.85681,11.14368,25.28076,11.39484,3.51221-3.58984,2.31982-8.14166,2.33643-12.32532.1294-32.35089,2.3678-77.11469.73377-109.97186-.995-20.0083-22.276-14.77026-41.99292-14.6073-17.09607.14136-23.30981,18.53918-14.285,32.34167C1062.62183,419.60706,1065.17542,427.121,1066.48267,438.03113Z" style="stroke:lime;stroke-miterlimit:10"/><path d="M914.32849,840.98364c3.56787-5.50623,5.297-8.99811,4.65735-14.32068-3.27869-1.3136-6.792-2.96649-10.44507-4.14484-10.68384-3.446-21.56055-6.457-32.04065-10.40741-11.79041-4.4444-23.07874-10.07776-33.025-18.85754-5.77539-5.09814-10.71484-5.6991-17.6521-2.71436-14.9187,6.4187-28.91833,14.30212-43.63257,16.86389-9.64844,1.67987-19.60425.50153-30.32764-2.88446-10.679-3.37164-15.48145,12.37158-16.66772,19.02185-1.81824,10.19336,3.40442,23.29529,11.49158,29.29846,6.24341,4.63452,21.194,6.82617,28.93005,4.73114-.63135-14.69733-1.7522-31.64453,13.60168-35.41516,15.92542-3.91113,22.89124,7.203,29.17761,23.756,16.30542-10.81708,32.89282-16.858,49.59106-17.48749C883.38477,827.84265,898.87646,831.86346,914.32849,840.98364Z" style="stroke:lime;stroke-miterlimit:10"/><path d="M906.22534,397.44531c7.95435,1.27588,20.4458-5.95032,33.88184-9.27332,15.7113-3.88574,35.71411,2.4635,48.26392,11.28906,29.39819,20.67444,35.49414,44.71228,34.08984,78.57349,18.50684,8.665,19.07031-41.636,15.43762-51.6333-4.00379-11.01892-11.98535-7.76672-17.8363-15.63611-7.54321-10.14551-4.80566-25.51392,4.08191-45.3125-14.53538-5.455-30.73419-8.71958-45.9697-11.91883-14.34015-3.01124-27.8269-5.85049-38.26992-13.95739C922.21582,358.65674,896.53931,386,897.78137,393.72119,898.78,399.92908,901.80078,396.7356,906.22534,397.44531Z" style="stroke:lime;stroke-miterlimit:10"/><path d="M568.05334,195.48254c-18.0686-2.77234-36.38666-12.3158-41.84869-8.05566-2.91229,2.27148.92609,9.58582,2.96039,12.20349,8.291,10.66809,46.50165,15.70288,59.16827,16.86963,11.28882,1.03979,14.11572,14.358,21.83337,16.88721,11.39978,3.73608,20.53-3.33594,29.0863-8.554,4.36768-2.66357,15.95837-4.79492,22.08032-6,11.66266-2.29541,35.71991,10.564,44.67218,2.5,1.47992-10.88062,2.32782-41.6665-13.17218-50.1665C688.36,168.71362,676.67065,168.702,671.66669,176c-8.30566,12.113-2.24933,22.05811-11.16669,26-12.434,5.49634-21.21814-3.80371-28-23.33325-10.35229,4.99353-19.65894,11.925-32.65961,15.5271C591.29132,196.56238,581.1449,197.49121,568.05334,195.48254Z" style="stroke:lime;stroke-miterlimit:10"/><path d="M806,502.25c-7.8197-6.23309-25.62573,11.11841-20.18811,25.69049,5.33948,14.30957,18.70605,21.32568,33.16809,31.31659C839.26074,573.26776,863,588.75,887,569.25c11.01367-8.94861,12.5376-15.36121,6.66675-19.41669-11.06018-7.64-31.41675-.83331-54.24585-11.48413C815.615,527.24249,823.25,516,806,502.25Z" style="stroke:lime;stroke-miterlimit:10"/><path d="M593.33331,439c-14.1001-4.396-26.16266-4.054-35.16663,6-9.33636,10.425-9.46313,21.00781-9.46313,21.00781S578.59576,468.0481,605,483.33325c18.9519,10.97119,42.16669,42.83344,42.16669,42.83344s24.74359-4.63861,20.24829-17.37488C649.88611,473.5,631.18286,450.80029,593.33331,439Z" style="stroke:lime;stroke-miterlimit:10"/><path d="M599.33331,574.5C617.7,559.30957,618.74817,552.61444,607.5,529.31787c-6.45032-13.3595-13.50159-20.80957-28.01721-22.03314-14.228-1.19922-26.7171-.9718-30.73279,13.96527-7.75555,28.84808,9.41882,31.08069,1.58331,53.08331C545.685,587.38611,535.9989,601.74713,565.25,601.75,577,601.75116,585.89111,585.61755,599.33331,574.5Z" style="stroke:lime;stroke-miterlimit:10"/><path d="M883.83333,411.5c-11.707-4.19063-14.48237,6.94312-31.149,25.34935a177.70359,177.70359,0,0,1-23.28129,21.42042c-4.70857,3.64549-6.41864,6.24871-6.203,8.5862.56521,6.126,14.35717,10.42686,22.065,26.8806,5.55477,11.8579,19.04722,17.632,31.07054,18.22275,12.50463.61435,23.42018-4.45972,22.16432-18.45932-.95191-10.61142-4.16611-19.22041-3.087-30.50839,1.30672-13.66839,6.06715-27.09567,4.33358-36.99929C898.36827,418.1181,893.33861,414.90251,883.83333,411.5Z" style="stroke:lime;stroke-miterlimit:10"/><path d="M694.35229,248.5c-14.4173-12.83057-50.03479,6.51221-53.90375,20.65686-3.18933,11.65991-.37109,56.67834,12.99982,59.21521,13.89679,2.63684,27.44678.28638,40.54773-1.65,13.56769-2.00537,49.78711-15.93933,51.33252-21.02515,3.45911-11.38269-3.02417-29.37146-11.53662-35.92883-17.05139,21.27026-32.14355,30.802-45.50586,23.89014C676.09869,287.354,675.60052,266.2644,694.35229,248.5Z" style="stroke:lime;stroke-miterlimit:10"/><path d="M720.09875,874.91132c-7.38635-5.81036-7.34875-20.68524-34.53229-20.68524-12.17364,0-25.19958,2.89978-32.47345,10.57806-8.72327,9.20825-8.05023,28.41266-1.48907,41.95441,2.45636,5.06982,25.5014,3.76312,49.64166,3.14191,25.384-.6532,51.979-.75989,57.12036-.75989,3.80933-7.26068,1.70837-10.93445,1.14673-17.94959C747.40881,887.35284,730.09119,882.77179,720.09875,874.91132Z" style="stroke:lime;stroke-miterlimit:10"/><path d="M757.53613,773.75c1.27051,1.86963,11.85205,6.28717,16.21387,6.5,7.19434.351,18.66748-3.84192,24.75-14.75,13.24585-23.75409,10.92322-68.90051-11.89709-72.97333-13.43188-2.397-20.86243-1.61621-32.84753.50452a144.24627,144.24627,0,0,0-27.74554,8.17963C709.51135,707.7027,701.79669,719.85638,703.5,732.25c1.022,7.43616,7.71906,19.212,13.5,19,12.0636-.44244,18.03821-26.78784,31.25-29.25,14.80981-2.75995,30,10.75,23.5,31C769.73792,759.26837,752.19165,765.88574,757.53613,773.75Z" style="stroke:lime;stroke-miterlimit:10"/><path d="M699.8114,629.00629c8.62311,2.22949,9.6886,9.24371,10.02191,21.1604.26538,9.486,25.80463,13.17749,31.66669,6.16663,4.90527-5.86646-.87476-19.18188-7.16675-23.16663-19.93036-12.6228-35.1153-28.41663-51.83325-46.83337C659.83942,607.9502,616.16669,649,616.16669,649s1.64844,10.90149,5.16663,12.33331C628.15106,664.108,645.95264,647.67,651.66669,652.5c8.778,7.42,4.785,23.55078,9,31.83331,3.09735,6.0863,12.28546,5.68878,14.5,2.16669,4.04144-6.42773-.48914-12.07-.77289-27.244-.19147-10.236-.92438-21.51929,3.8562-27.256C681.98535,627.51758,692.80609,627.19507,699.8114,629.00629Z" style="stroke:lime;stroke-miterlimit:10"/><path d="M718.9259,154.27612c12.02,8.91626,18.44055,25.07166,31.54321,26.26221,13.56409,1.23242,31.78748-.92773,42.76343-17.144,6.22546-9.19788,8.84338-17.39465,4.6853-26.94336C790.78394,120.0686,748,125.105,734.40332,124.16675c-8.29022-.57214-21.99536-4.407-32.90051-3.9856-13.308.51416-22.474,9.56006-12.66949,20.31885C696.33057,148.72693,706.93079,145.3783,718.9259,154.27612Z" style="stroke:lime;stroke-miterlimit:10"/><path d="M842.54016,266.41235a62.18626,62.18626,0,0,1-11.54333,29.136c-8.2854,10.78906-18.63745,17.78223-19.16357,31.29492-.46851,12.03711,32.67993,9.95654,44.002.67358,13.72559-11.25366,27.6936-19.37915,40.998-31.9917-8.57324-12.32886-14.9397-25.64624-23.53357-36.813C867.35669,250.99011,843.57642,257.391,842.54016,266.41235Z" style="stroke:lime;stroke-miterlimit:10"/><path d="M1025.30249,827.339c-12.49829-8.557-23.75586-15.28351-35.04443-25.61676-17.54956-16.06445-36.8186,7.98938-31.93909,23.03955,3.16162,9.75171,9.66052,17.65991,13.06384,26.98969C976.23547,865.054,978.927,879.18042,992,888c12.10437,8.16608,25.59277-6.44153,33.49683-23.75928,4.70337-10.30542,8.07519-21.5705,6.22559-29.56744C1030.86438,830.96375,1028.1405,829.28217,1025.30249,827.339Z" style="stroke:lime;stroke-miterlimit:10"/><path d="M803.061,197.70117c13.79858,15.65063,14.979,20.72534,20.09033,39.12671,15.35156-.42554,24.46228-6.22827,29.689-13.689,4.36523-6.23108,6.02124-13.01367,6.34082-24.51147a291.36848,291.36848,0,0,0-1.82019-37.739c-1.20691-12.12158-2.63672-24.07983-7.15784-36.75952-6.62439-1.08386-19.99438-1.14954-26.70459,3.73975,2.75146,11.79907,3.97754,25.63623,2.63623,35.61523C824.19519,177.9126,813.82837,185.25,803.061,197.70117Z" style="stroke:lime;stroke-miterlimit:10"/><path d="M818.52075,355.95422c-19.354,18.54578-34.56787,6.98865-33.771-18.93225-2.01477-10.52063-9.13208-7.81458-15.80725-4.78882,11.92419,21.175,2.08386,52.05591-6.46765,55.59424-7.56567,3.13037-17.37891-.59473-22.00439-9.65161-2.63916-5.16736-4.5896-9.07031-2.47046-17.42578,2.60022-10.25232-33.7735-1.28174-38.93671,9.42627-3.65436,7.57861,14.10339,17.657,14.10339,17.657s28.742,21.11035,45.33331,39c22.532-21.5105,68.54785-61.6394,68.54785-61.6394S820.88013,353.6936,818.52075,355.95422Z" style="stroke:lime;stroke-miterlimit:10"/><path d="M428.33331,200.33325c-1.97095,18.23169,20.89563,37.91919,43.5,34.16675,14.34558-3.49158,25.54382-10.127,32.33337-23.83325-3.82849-13.303-18.121-30.42432-24.75879-39.7146C474.81146,164.519,465,145.33325,465,145.33325s-46-2.1665-42.42975,33.16675C423.52307,187.92957,429.66669,188,428.33331,200.33325Z" style="stroke:lime;stroke-miterlimit:10"/><path d="M606.83331,787.83453c-8.01715-.5166-20.25525,12.38525-22.38019,19.88318-2.91272,10.27777.72412,29.37512,2.71271,47.80951,2.43329,22.55615,2.89038,44.11975,5.34528,47.31927,3.38458,4.41132,20.24475,7.613,24.65558,2.84137,6.79626-7.35229-.33362-44.45892,3.08331-54.18787,3.04376-8.6665,19.76978-12.3302,20.25-21.75.35486-6.96063-11.1972-16.652-17.54346-24.96521C616.037,795.72076,613.98438,788.29523,606.83331,787.83453Z" style="stroke:lime;stroke-miterlimit:10"/><path d="M350.25,480.5c13.81348,7.39478,22.15765,20.00879,37.75,17.625,24.93748-3.8125,14.71063-27.87708-6.8631-32.65417-14.99536-3.32043-26.13843-.18726-33.08459-14.234-11.25-22.75,26.19183-65.06177,18.335-81.74048C349.25,375.08911,337.45654,376.56787,332.25,390.75c-5.14758,14.02148-4.57855,38.90967-4.13379,54.02393C328.8299,469.02673,330.76385,470.0686,350.25,480.5Z" style="stroke:lime;stroke-miterlimit:10"/><path d="M600.81061,752.75c2.51288-10.43689,4.35864-21.33875,8.43939-30.90808,5.692-13.34778,11.15173-21.18353,21.582-32.04993-9.20007-11.22357-28.35761-18.99115-39.77094-10.70654-17.65613,12.81616-34.91,36.29041-43.1507,44.09558C555.07867,739.41241,561.59985,751.27435,573.25,766,573.25,766,598.03931,764.25995,600.81061,752.75Z" style="stroke:lime;stroke-miterlimit:10"/><path d="M697.402,807.79449c12.36841-3.0437,17.39478-20.16705,4.93195-27.4975-16.11749-9.47968-29.48553-23.44849-31.88293-39.82636-1.70929-11.67664,8.54993-20.54462-1.66547-26.95087-5.73553-3.59686-13.49536,1.88989-17.53888,6.252-13.2196,14.26086-16.20514,26.21539-8.74536,46.528C651.01392,789.47925,672.52411,813.91632,697.402,807.79449Z" style="stroke:lime;stroke-miterlimit:10"/><path d="M385.17493,412.25c1.55322,9.11475,8.16925,23.2688,15.29858,28.06335,15.68445,10.548,31.47589,15.95007,42.77649-1.02954C433.75,412.25,417.90527,416.85474,412.5,399.5c-5.94562-19.08972-2.44745-37.06287-13.5-52.75-12,0-5.87469,16.66809-7,28C390.35516,391.31335,382.29089,395.32593,385.17493,412.25Z" style="stroke:lime;stroke-miterlimit:10"/><path d="M757.42969,215.17041c-6.88135.26453-13.673,3.3269-16.92139,12.605-9.72491,27.77539,15.6604,15.34192,28.89331,32.93237,4.41089,5.86353,4.47168,21.9519,4.43164,34.12549-.01782,5.47559,7.43335,15.06079,12.144,12.47363,13.07849-7.18262,22.7561-23.698,23.49414-35.14575.806-12.50244-9.27954-17.1167-17.05078-28.7157C781.43738,227.05176,770.0896,214.68384,757.42969,215.17041Z" style="stroke:lime;stroke-miterlimit:10"/><path d="M1075.5,552.75c21.75,1.25,34.25,27,19.75,45.5-7.72607,9.8573-12,44-2.08569,45,11.04651,1.1142,26.36523-4.53259,26.95959-19.76978.33765-8.65448-.53076-24.09265-.709-38.98022-.16492-13.77661.54846-27.08173-3.5271-34.10345-1.78845-3.08118-16.43591-9.60858-26.71765-15.39545-9.18384-5.16907-15.87366-9.74731-20.92017-10.7511-19.59216-3.897-22.71313,1.89038-16.75,14.15363C1055.55054,546.734,1064.8208,552.13623,1075.5,552.75Z" style="stroke:lime;stroke-miterlimit:10"/><path d="M905.29785,866.4292c-11.15186-8.14661-24.42944-4.32355-37.15442,4.99719,7.32849,11.73938,9.882,18.87115,12.28992,34.38721,26.78076-.13977,73.38782-1.20349,73.38782-1.20349s3.49158-21.15179-.525-24.478C943.5249,872.04065,923.40015,879.65308,905.29785,866.4292Z" style="stroke:lime;stroke-miterlimit:10"/><path d="M957.51221,423.75s-4.937-4.00732-8.28418-3.81909c-3.04321.17114-10.8313,4.4563-14.728,8.06909-12.43127,11.52551-21.03772,28.9729-8.16675,45.28992,8.55,10.839,25.2417,14.60205,40.3335,12.04334,16.584-2.81152,24.04407-9.2998,28-24.1665,1.18823-4.46606-1.7644-21.8396-5.66675-20.3335-11.91357,4.59814-10.5,25-30.66675,15.16675C947.614,450.77319,942.46008,435.478,957.51221,423.75Z" style="stroke:lime;stroke-miterlimit:10"/><path d="M478.125,599.5s10.47229,6.17889,17,3.375c10.82483-4.64972,20.66095-10.1629,23-23.125,1.89246-10.48749.72-24.29736-5.12927-32.607-9.72986-13.82245-23.56091-14.22321-37.87073-11.768-12.38287,2.12457-24.5802,8.67041-29.875,21.5-1.00433,2.43359,3.375,7.875,3.375,7.875s23.22034-11.375,35.625,2.625C499.8172,584.94434,478.125,599.5,478.125,599.5Z" style="stroke:lime;stroke-miterlimit:10"/><path d="M523.33331,156.66675C559.5,153.792,568.03552,182.06885,586.9845,163.5,582,152.33325,575.78925,142.40649,573,131.83325c-3.30371-12.52417-66.08575-4.16479-76-1.83325C494.5,153,503.776,158.22119,523.33331,156.66675Z" style="stroke:lime;stroke-miterlimit:10"/><path d="M1049.54932,575.296c-9.50269-5.43164-36.65845-9.42633-42.50146,4.69543-4.0315,9.74341,22.69775,23.06506,28.70215,31.50854,11.46558,16.12323,2.958,55.02509,21.70947,61.41791,9.04053,3.08209,3.814-27.51447,5.56909-44.66516C1065.40381,605.03973,1072.75,588.55731,1049.54932,575.296Z" style="stroke:lime;stroke-miterlimit:10"/><path d="M662.66669,398.87622c-14.76074-4.31494-15.83337.29053-11.66669,8.457,3.59064,7.03784,20,12.8335,36.16669,28.66675,10.72534,9.4856,31.79913,33.16125,31.79913,33.16125l14.20093-12.49451S693.91089,408.00977,662.66669,398.87622Z" style="stroke:lime;stroke-miterlimit:10"/><path d="M628.5,153.16675c11.572,3.12183,28.19452-6.33374,39.7005-8.8335,2.42889-6.218,1.09448-11.96069-1.7005-18.33325-21.982,0-58.35687-3.16089-59.66669-.33325C604.62286,130.4386,614.77222,149.46313,628.5,153.16675Z" style="stroke:lime;stroke-miterlimit:10"/><path d="M827.40161,883.00653c-14.31982,1.7085-31.87915,5.45709-46.61084,7.85577-2.19189,6.06189-3.26611,12.45044-.44421,18.19562,21.95715,0,43.44788,1,67.68787,1C848.03442,897.48029,840.13086,881.48767,827.40161,883.00653Z" style="stroke:lime;stroke-miterlimit:10"/><path d="M716.24841,572.47412c14.2,25.0105,59.54773,51.37805,85.52881,46.73517C756.369,592.19354,750.197,586.7262,728.43,561.54437c0,0-6.86139.53-8.57788,1.90039C717.95276,564.96118,715.73236,572.16614,716.24841,572.47412Z" style="stroke:lime;stroke-miterlimit:10"/><path d="M899.16091,169.98988l-2.40266-30.1667a8.10732,8.10732,0,1,0-11.28286.89863l2.40266,30.1667a8.10732,8.10732,0,1,0,11.28286-.89863Z" style="stroke:lime;stroke-miterlimit:10"/><path d="M1022.99292,312.16314l-27.8728-11.786A8.10732,8.10732,0,1,0,990.712,310.802l27.8728,11.786a8.10733,8.10733,0,1,0,4.40817-10.4249Z" style="stroke:lime;stroke-miterlimit:10"/><path d="M925.17018,239.4289l-13.569-27.04969a8.10732,8.10732,0,1,0-10.117,5.075l13.569,27.04969a8.10732,8.10732,0,1,0,10.117-5.075Z" style="stroke:lime;stroke-miterlimit:10"/><path d="M1068.77086,332.23088l30.17385,2.31112a8.10733,8.10733,0,1,0,.8644-11.28554l-30.17385-2.31112a8.10733,8.10733,0,1,0-.8644,11.28554Z" style="stroke:lime;stroke-miterlimit:10"/><path d="M538.1048,862.37777l2.59858,30.15046a8.10732,8.10732,0,1,0,11.27679-.97191l-2.59858-30.15046a8.10732,8.10732,0,1,0-11.27679.97191Z" style="stroke:lime;stroke-miterlimit:10"/><path d="M415.8107,703.78387l27.8445,11.8527a8.10732,8.10732,0,1,0,4.43311-10.41432l-27.8445-11.8527a8.10732,8.10732,0,1,0-4.43311,10.41432Z" style="stroke:lime;stroke-miterlimit:10"/><path d="M515.91816,787.17717l11.34559,28.055a8.10732,8.10732,0,1,0,10.493-4.24344l-11.34559-28.055a8.10732,8.10732,0,1,0-10.493,4.24344Z" style="stroke:lime;stroke-miterlimit:10"/><path d="M369.15007,681.98955l-30.23723-1.23a8.10732,8.10732,0,1,0-.46,11.30924l30.23723,1.23a8.10732,8.10732,0,1,0,.46-11.30924Z" style="stroke:lime;stroke-miterlimit:10"/></g></svg>