<svg xmlns="http://www.w3.org/2000/svg" viewBox="0 0 1025 753">
  <title>FULL_MAP_SMALL</title>
  <g>
    <g style="opacity: 0.25">
      <path d="M.5.5v752h1024V.5ZM166.046,520.34027c.32591-6.048,16.27591-26.40738,16.55707-32.577,0,0,5.84644-255.478,6.16615-286.158C190.85664,155.881,205.11237,115.086,238.86068,84.7099c51.653-46.49173,114.78338-42.29106,179.48056-42.34053C437.089,42.355,632.97274,38.9688,632.97274,38.9688c9.33793-.3392,18.63325-9.9963,27.80625-10.44137l143.36528,4.21814c1.72691,20.29685,22.31128,37.54231,42.98542,35.52209L851.545,214.6708c.22283,7.84168-8.71406,20.08474-8.77569,28.141-.5974,78.13018,5.24583,160.99668,5.38785,221.92551.11649,49.97949-5.46424,85.66348-5.78628,87.90833-5.51806,38.45907-22.345,73.37426-50.92066,99.34643-31.76363,28.86973-83.15087,44.56351-126.18655,44.41591-26.67257-.09149-277.80486,3.33285-277.80486,3.33285-9.87661.48419-19.65859,15.2777-29.28273,15.87973l-155.72049,7.44085c2.48889-23.73309-14.34074-45.80884-38.5197-48.53082Z" style="stroke: lime;stroke-miterlimit: 10"/>
      <g>
        <path d="M262.54444,228.91288c6.02734-13.1393,22.09657-13.09427,33.83446-3.13961,15.29145,12.96839,14.19761,31.66531,18.78776,49.87239,24.8668-13.5476.13559-44.18733-6.93333-61.68733-9.9615-24.661-30.04444-54.83333-47.46667-54.83333-10.68459,0-16.997,22.348-19.52257,49.8351-1.1724,12.75968-.92187,29.56642-1.45521,40.42627C260.86845,250.02477,256.762,241.51826,262.54444,228.91288Z" style="stroke: lime;stroke-miterlimit: 10"/>
        <path d="M362.21853,444.98234c-9.58841,2.129-22.67921.48054-33.54076-4.56946-23.81645-11.07335-27.75755-33.842-30.04444-58.03788-2.13333-3.38258-6.579-1.78517-8.2099,1.23782-4.98507,28.20789-2.11458,35.0927,8.38767,46.4743,12.97778,14.06439-8.53333,27.77855-2.963,33.529,33.00742,2.96719,40.28168,9.9697,55.94076,20.11895,11.828-11.24,35.66957-38.04063,35.66957-38.04063C377.03333,428.84091,374.60161,442.23273,362.21853,444.98234Z" style="stroke: lime;stroke-miterlimit: 10"/>
        <path d="M331.17908,352.89056s-14.94575-1.49283-22.94575,7.71311c4.74032,5.24111,18.14023,8.17066,31.16576,8.07008a62.57873,62.57873,0,0,0,21.86341-4.24009c8.77014-3.52888,14.90647-9.04221,12.79939-15.70639-2.10538-6.6591-6.29462-10.46284-8.40634-15.31061-3.09262-7.09948-3.2151-14.487,1.95556-20.29545,3.60712-4.05193,8.52687-7.51987,14.75556-11.03788,3.07622-1.73753,3.6622-4.42068,2.36007-9.41266-10.80495-1.49118-13.0806-3.11275-22.543-7.66643-8.30022-3.99429-11.07431-6.65058-18.03928-13.008-12.79349,9.91789-9.96671,20.12229-5.51111,32.57955,2.92865,8.18809,2.35872,16.51353.88889,22.96591,8.682,4.93391,13.33333,8.90152,12.62222,17.447C351.153,356.90267,331.17908,352.89056,331.17908,352.89056Z" style="stroke: lime;stroke-miterlimit: 10"/>
        <path d="M270.72222,381.71073c-3.03047-12.74686-17.19818-22.82535-31.05187-19.80322-1.18516,2.63916-5.02652,39.71093-4.56645,62.75394.09288,4.65317-.546,23.77556,2.19609,26.967,4.96827,5.78229,17.06233,4.92222,27.55556,5.33565,8.301.327,18.161-13.68591,12.26793-19.23066C259.69575,421.33569,275.32808,401.08413,270.72222,381.71073Z" style="stroke: lime;stroke-miterlimit: 10"/>
        <path d="M422.07036,312.76515c-10.02674-3.13048-18.60456-2.88691-25.00738,4.27273-6.63919,7.4239-6.72934,14.96011-6.72934,14.96011s21.25668,1.45293,40.033,12.33781c13.47691,7.81282,29.9852,30.5026,29.9852,30.5026s17.59544-3.30325,14.39878-12.373C462.28568,337.33333,448.98559,321.16839,422.07036,312.76515Z" style="stroke: lime;stroke-miterlimit: 10"/>
        <path d="M426.337,409.25758c13.06076-10.81743,13.80612-15.58517,5.80742-32.17515-4.58689-9.51358-9.60113-14.81894-19.92335-15.69027-10.11771-.854-18.99883-.692-21.85443,9.945-5.51506,20.54333,6.69783,22.13322,1.12591,37.80175-3.30547,9.29517-10.19336,19.522,10.60742,19.524C410.45556,428.6637,416.77813,417.17462,426.337,409.25758Z" style="stroke: lime;stroke-miterlimit: 10"/>
        <path d="M249.21111,342.31818c9.82292,5.266,15.75655,14.24868,26.84444,12.55114,17.73332-2.715,10.46089-19.85186-4.88043-23.25373-10.66337-2.36455-18.58733-.13335-23.52682-10.13634-8-16.20076,18.6253-46.33186,13.03819-58.20913-12.1865,3.98273-20.573,5.03579-24.27539,15.13518-3.6605,9.985-3.25586,27.7084-2.93958,38.47158C233.979,334.14783,235.3543,334.88976,249.21111,342.31818Z" style="stroke: lime;stroke-miterlimit: 10"/>
        <path d="M274.04661,293.71591c1.10451,6.4908,5.80924,16.57021,10.879,19.98451,11.15339,7.51144,22.38286,11.35839,30.41884-.73316-6.75556-19.25135-18.02292-15.97222-21.86667-28.3309-4.228-13.5942-1.74041-26.39325-9.6-37.56439-8.53333,0-4.17756,11.8697-4.97778,19.93939C277.73034,278.80648,271.99575,281.66392,274.04661,293.71591Z" style="stroke: lime;stroke-miterlimit: 10"/>
        <path d="M340.14444,427.06061s7.447,4.40012,12.08889,2.40341c7.69766-3.31116,14.69223-7.23722,16.35556-16.4678,1.34575-7.46836.512-17.30267-3.64748-23.22013-6.919-9.84326-16.75443-10.12865-26.9303-8.38025-8.8056,1.513-17.47925,6.17438-21.24444,15.31061-.71419,1.733,2.4,5.608,2.4,5.608S335.67891,394.214,344.5,404.18371C355.57,416.69521,340.14444,427.06061,340.14444,427.06061Z" style="stroke: lime;stroke-miterlimit: 10"/>
      </g>
      <g>
        <path d="M791.4401,475.12553c-7.6645-2.98127-16.01615,5.47252-17.78455,15.31387-2.64948,14.74492-11.40651,20.18266-24.88889,13.70833C738.49878,499.217,728.33524,482.94439,723.7,472.81439c-4.17517-9.12453-.154-25.29121-8.17778-26.34848-6.75556-.89015-7.99184,24.514-1.06389,33.41867,5.21163,6.69869,10.45139,12.28418,14.25582,19.61784,5.76745,11.11768,9.15946,24.40406,11.4553,37.05569a33.99111,33.99111,0,0,0,8.95486,17.6483c6.69306,7.19076,17.455,18.55505,26.10226,16.45016,11.03993-2.68736,15.55677-14.99666,18.00417-26.79821,2.0026-9.657,1.7158-29.25108,1.7717-44.69486C795.04792,486.63217,794.62552,476.36457,791.4401,475.12553Z" style="stroke: lime;stroke-miterlimit: 10"/>
        <path d="M648.14444,420.75657c-3.16528,1.76679-12.48924,5.51451-7.40747,7.847,11.37778,5.22221,17.39332,13.02507,25.143,18.80476,6.00217,4.47636,14.65477,13.196,22.05417,8.351,8.71823-5.70844,7.093-18.62181,5.62717-30.35478-.60113-4.81138,1.19063-9.42426.0184-13.26039-3.547-11.6077-7.70747-14.49678-10.45894-16.59489-8.28533-6.31795-9.6862-13.7558-6.35408-19.04924,2.59167-4.11712,9.60608-6.81487,16.9401-5.77277,13.83385,1.96572,29.86684,4.34853,28.74878-7.048-.53429-5.44618-19.28924-3.26492-36.63247-2.55719-17.72977.72347-34.40486,4.64317-31.10087,14.84384C664.14444,391.81061,669.03932,409.09341,648.14444,420.75657Z" style="stroke: lime;stroke-miterlimit: 10"/>
        <path d="M758.53212,312.0752c.89826,7.50848-1.64392,16.925-1.74653,25.08011-.11458,9.104,5.29271,15.34468,13.91007,20.56511,5.17049,3.13226,11.98707,7.93565,17.97743,8.1145,2.49757-2.5564,1.64965-5.79785,1.66146-8.77712.092-23.03776,1.68377-54.915.52179-78.3133-.70755-14.24834-15.84071-10.51822-29.86163-10.40217-12.1572.10066-16.57587,13.20215-10.15825,23.03119C755.78663,298.955,757.60252,304.30584,758.53212,312.0752Z" style="stroke: lime;stroke-miterlimit: 10"/>
        <path d="M644.57135,283.17318c5.65642.90858,14.53924-4.23735,24.09375-6.60372,11.17248-2.76712,25.3967,1.75431,34.321,8.03918,20.90538,14.72271,25.24028,31.84056,24.24167,55.95385,13.16042,6.17056,13.56111-29.64987,10.97786-36.76917-2.84714-7.84681-8.52292-5.53085-12.68359-11.1348-5.36406-7.22483-3.41736-18.169,2.90269-32.268-10.33627-3.8846-21.85543-6.2094-32.68957-8.48765-10.19744-2.14437-18.788-5.16626-26.21417-10.93935-12.57865,13.5875-31.8375,34.05922-30.95425,39.55764C639.27691,284.94192,641.425,282.66777,644.57135,283.17318Z" style="stroke: lime;stroke-miterlimit: 10"/>
        <path d="M573.3,357.80682c-5.56068-4.43872-18.22274,7.91765-14.356,18.29474,3.797,10.19015,13.30208,15.18647,23.5862,22.30121,14.42188,9.9773,31.30313,21.00253,48.36979,7.11617,7.83194-6.37249,8.91562-10.939,4.7408-13.827-7.865-5.44057-22.3408-.59342-38.57483-8.17809C580.13733,375.6045,585.56667,367.59848,573.3,357.80682Z" style="stroke: lime;stroke-miterlimit: 10"/>
        <path d="M628.64815,293.18182c-8.325-2.98424-10.29857,4.94435-22.15038,18.05181a126.43614,126.43614,0,0,1-16.55558,15.25394c-3.34832,2.596-4.56436,4.44984-4.411,6.11442.40192,4.36247,10.20954,7.42519,15.69069,19.14224,3.95006,8.44426,13.54469,12.55616,22.09461,12.97681,8.89218.43749,16.65435-3.17586,15.7613-13.14527-.67692-7.55662-2.96257-13.68726-2.19517-21.72567.92922-9.73355,4.31442-19.2954,3.08165-26.348C638.9841,297.8947,635.40746,295.60482,628.64815,293.18182Z" style="stroke: lime;stroke-miterlimit: 10"/>
        <path d="M764.94444,393.76894c15.46667.89015,24.35556,19.22727,14.04444,32.40152-5.4941,7.01959-8.53333,31.33333-1.48316,32.04545,7.8553.79344,18.74861-3.22776,19.17127-14.07848.2401-6.163-.37743-17.15689-.50417-27.75864-.11727-9.81062.39-19.28547-2.50816-24.28579-1.27179-2.19417-11.68776-6.84247-18.99922-10.96342-6.53073-3.681-11.28793-6.94127-14.87656-7.65609-13.9322-2.77516-16.15156,1.34618-11.91111,10.0791C750.75816,389.48482,757.35035,393.33186,764.94444,393.76894Z" style="stroke: lime;stroke-miterlimit: 10"/>
        <path d="M681.042,301.9053s-3.51076-2.8537-5.891-2.71966c-2.16406.12187-7.70226,3.17342-10.47326,5.74617-8.84,8.20756-14.96016,20.63222-5.80747,32.25191,6.08,7.71867,17.94965,10.39843,28.6816,8.57631,11.79306-2.00215,17.098-6.62259,19.91111-17.20948.845-3.18038-1.25469-15.55244-4.02969-14.47991-8.47187,3.27444-7.46667,17.803-21.80747,10.80056C674.0033,321.14909,670.33828,310.25708,681.042,301.9053Z" style="stroke: lime;stroke-miterlimit: 10"/>
        <path d="M746.49063,409.82444c-6.75747-3.868-26.06823-6.71269-30.22326,3.34372-2.86684,6.93849,16.14063,16.42512,20.41042,22.4379,8.1533,11.48169,2.10347,39.18453,15.43785,43.737,6.42882,2.19482,2.71215-19.59363,3.96024-31.807C757.76493,431.00557,762.98889,419.26809,746.49063,409.82444Z" style="stroke: lime;stroke-miterlimit: 10"/>
      </g>
      <g>
        <path d="M401.74444,195.62121c12.33034,1.60844,17.55035,8.7992,19.17422,17.83832,2.33016,12.97031-4.25035,28.28022-20.60734,30.68945-7.34991,1.08253-12.66862,2.55527-6.03355,7.01768,13.65495,9.18377,28.99826,13.22423,45.33333,14.77652,11.276,1.07157,18.88511-7.5117,11.73333-14.06439-6.65534-6.0978-10.11584-10.51179-12.11085-14.86849-2.48989-5.43775-2.697-10.78639-3.9832-19.20876-4.35265-28.5011-23.9829-48.18354-52.10447-52.0743-11.39336-1.57619-11.45972,5.55258-19.00213,12.02556-7.191,6.17143-22.39844,2.14262-24.25855,10.29194-1.48342,6.499-.10113,15.01409,5.25968,23.77478,5.588,9.13188,16.169,19.56925,23.52973,21.094,2.14314.44395,5.09223-2.10768,5.22357-3.30417.28889-2.63221-4.93429-6.03512-4.99227-10.79969-.05039-4.1392,4.24167-10.83985,5.6385-13.39678C379.38351,196.555,391.63824,194.30285,401.74444,195.62121Z" style="stroke: lime;stroke-miterlimit: 10"/>
        <path d="M404.09349,139.35121c-12.84878-1.97424-25.875-8.77034-29.75907-5.73661-2.071,1.61757.65855,6.82626,2.10516,8.69036,5.89579,7.597,33.06784,11.18235,42.07522,12.01322,8.0276.74046,10.03785,10.22466,15.526,12.02574,8.10651,2.66054,14.59909-2.37559,20.68359-6.09145,3.1059-1.89679,11.34818-3.41457,15.70156-4.27273,8.29345-1.63461,25.40082,7.52282,31.76688,1.7803,1.05239-7.74832,1.65534-29.6716-9.36688-35.72463-3.181-1.74692-11.49345-1.75518-15.05182,3.44186-5.90625,8.626-1.59952,15.708-7.94076,18.51515-8.842,3.91406-15.08845-2.7087-19.91111-16.6161-7.36163,3.556-13.97969,8.49208-23.22461,11.05718C420.61827,140.12018,413.403,140.78162,404.09349,139.35121Z" style="stroke: lime;stroke-miterlimit: 10"/>
        <path d="M493.90608,177.10606c-10.2523-9.13692-35.5803,4.63748-38.33155,14.71019-2.268,8.30327-.26389,40.36185,9.24431,42.16841,9.88216,1.87775,19.51771.20394,28.83394-1.175,9.64813-1.42807,35.40417-11.35074,36.50313-14.97245,2.45981-8.10586-2.15052-20.916-8.20382-25.58568-12.12543,15.147-22.85764,21.93476-32.35972,17.01267C480.92574,204.77482,480.57148,189.75647,493.90608,177.10606Z" style="stroke: lime;stroke-miterlimit: 10"/>
        <path d="M511.38064,110.00724c8.54753,6.34946,13.11328,17.85406,22.43073,18.70187,9.64557.87763,22.60443-.66066,30.40955-12.20864,4.427-6.55,6.28863-12.3871,3.33177-19.18694-5.073-11.6662-35.49714-8.07969-45.16589-8.74782-5.89527-.40744-15.64115-3.13831-23.39592-2.83823-9.4635.36614-15.98151,6.80792-9.00942,14.46948C495.31285,106.05554,502.85078,103.67091,511.38064,110.00724Z" style="stroke: lime;stroke-miterlimit: 10"/>
        <path d="M599.28411,189.86183a44.31987,44.31987,0,0,1-8.20859,20.74835c-5.89184,7.68312-13.2533,12.6631-13.62743,22.28578-.33316,8.57188,23.23906,7.09027,31.29028.47967,9.76042-8.014,19.69323-13.8003,29.15417-22.782-6.09653-8.77964-10.62378-18.26323-16.735-26.21531C616.93142,178.87932,600.021,183.43752,599.28411,189.86183Z" style="stroke: lime;stroke-miterlimit: 10"/>
        <path d="M571.21007,140.93114c9.81233,11.14515,10.65174,14.759,14.28646,27.863,10.91667-.303,17.3954-4.43528,21.11215-9.7482,3.10417-4.43728,4.28177-9.26731,4.509-17.45514a207.7817,207.7817,0,0,0-1.29436-26.87475c-.85825-8.632-1.875-17.14776-5.09-26.17724-4.71068-.77184-14.21823-.81861-18.98993,2.66315,1.9566,8.40237,2.82847,18.2561,1.87465,25.36236C586.2388,126.83927,578.86684,132.06439,571.21007,140.93114Z" style="stroke: lime;stroke-miterlimit: 10"/>
        <path d="M582.20365,253.62649c-13.76285,13.20684-24.5816,4.97676-24.01493-13.48206-1.43273-7.492-6.49392-5.56492-11.24071-3.41022,8.47943,15.0792,1.48186,37.07012-4.59922,39.58984-5.38,2.2292-12.35833-.42352-15.64757-6.87312-1.87674-3.67979-3.26372-6.45916-1.75677-12.40927,1.849-7.30089-24.01671-.91275-27.68832,6.71265-2.59865,5.39689,10.02908,12.57391,10.02908,12.57391s20.43876,15.03313,32.237,27.77273c16.02274-15.31808,48.74514-43.89473,48.74514-43.89473S583.88142,252.01666,582.20365,253.62649Z" style="stroke: lime;stroke-miterlimit: 10"/>
        <path d="M304.737,142.8055c-1.40156,12.98317,14.85911,27.00306,30.93333,24.33087,10.2013-2.48643,18.1645-7.21162,22.99262-16.97216-2.72248-9.47333-12.886-21.6658-17.60625-28.28161-3.26858-4.58115-10.24562-18.24376-10.24562-18.24376S298.1,102.096,300.63885,127.25758C301.31641,133.97257,305.6852,134.02273,304.737,142.8055Z" style="stroke: lime;stroke-miterlimit: 10"/>
        <path d="M538.76111,153.37135c-4.8934.18837-9.723,2.36916-12.033,8.97627-6.91549,19.77944,11.13628,10.92531,20.54635,23.45184,3.13663,4.17554,3.17986,15.63242,3.15139,24.30148-.01267,3.89928,5.28594,10.72511,8.63576,8.88274,9.30026-5.11489,16.18212-16.87585,16.70694-25.028.57318-8.90325-6.59878-12.18916-12.125-20.44906C555.83325,161.83231,547.76372,153.02485,538.76111,153.37135Z" style="stroke: lime;stroke-miterlimit: 10"/>
        <path d="M372.29258,111.70965c25.71853-2.04717,31.78824,18.08937,45.26306,4.8661-3.54453-7.95208-7.96107-15.02113-9.94453-22.55056-2.34931-8.91873-46.99431-2.96584-54.04444-1.3055C351.78889,109.09848,358.38516,112.81661,372.29258,111.70965Z" style="stroke: lime;stroke-miterlimit: 10"/>
        <path d="M471.37409,284.19216c-10.49653-3.07276-11.25929.20689-8.29631,6.02243,2.55334,5.0118,14.22222,9.139,25.71853,20.4142,7.62691,6.75489,22.61272,23.61483,22.61272,23.61483l10.09844-8.8976S493.59219,290.69635,471.37409,284.19216Z" style="stroke: lime;stroke-miterlimit: 10"/>
        <path d="M447.07778,109.21723c8.229,2.22312,20.04944-4.51039,28.23147-6.29052,1.72721-4.428.7783-8.51746-1.20924-13.0555-15.63164,0-41.49822-2.25094-42.42964-.23732C430.09848,93.032,437.3158,106.57981,447.07778,109.21723Z" style="stroke: lime;stroke-miterlimit: 10"/>
      </g>
      <g>
        <path d="M596.16684,520.02285c2.60634,15.065,9.354,23.578,21.52361,33.00137,7.558,5.85249,39.45321,24.39784,46.32,11.99623,3.3217-5.99935.01163-18.00849,5.36771-20.829,4.4987-2.369,11.01493,4.05136,16.49913,3.317,7.68437-1.02893,7.67361-16.66222,5.29115-23.07483-3.07691-8.28249-6.75-11.48439-11.52005-16.03059-4.52214-4.31-10.0303-10.04446-16.9513-14.76439-1.94826.42526-3.83247.93879-3.56441,2.76682.58307,3.97513,4.61875,10.79856,4.33194,18.43383-.24714,6.58308-4.60052,14.48178-12.31181,20.96659-13.295,11.18036-40.93151-4.18615-43.71944-21.38306-1.94948-12.02517,6.33993-23.31293,16.43924-28.50919,5.51-2.835,30.3941-5.302,13.68741-9.91189-18.597-5.1315-22.74245-13.55034-38.24436-15.39814-11.58194-1.38047-24.30191,2.24889-21.25312,11.48317,3.103,9.398,16.56806,9.49063,19.20668,17.05444C599.64462,495.9506,594.89566,512.67536,596.16684,520.02285Z" style="stroke: lime;stroke-miterlimit: 10"/>
        <path d="M650.33359,599.02623c2.53715-3.9211,3.76675-6.40774,3.31189-10.19806-2.33151-.93544-4.82986-2.1125-7.4276-2.95163-7.5974-2.454-15.33194-4.59819-22.78446-7.41134-8.38429-3.16495-16.41155-7.17659-23.48446-13.42886-4.10694-3.6305-7.61944-4.05845-12.5526-1.933-10.60885,4.57089-20.56415,10.18485-31.0276,12.00913-6.86111,1.19627-13.9408.35715-21.56632-2.05409-7.59392-2.401-11.009,8.81007-11.8526,13.54586-1.293,7.25891,2.42092,16.58907,8.17179,20.86406,4.43976,3.30034,15.07127,4.86106,20.57248,3.36915-.449-10.46628-1.246-22.53474,9.67231-25.21989,11.32474-2.7852,16.27821,5.12941,20.74852,16.91714,11.595-7.70307,23.39045-12.005,35.26476-12.45321C628.32917,589.66825,639.34549,592.53156,650.33359,599.02623Z" style="stroke: lime;stroke-miterlimit: 10"/>
        <path d="M512.21467,623.18685c-5.25252-4.13768-5.22578-14.7304-24.55629-14.7304-8.65681,0-17.9197,2.065-23.09223,7.53286-6.20321,6.55739-5.72461,20.23326-1.0589,29.87662,1.74674,3.61033,18.13433,2.6798,35.30074,2.23742,18.05087-.46516,36.96285-.54113,40.61892-.54113,2.70885-5.17049,1.21484-7.78665.81545-12.78228C531.63516,632.04672,519.3204,628.78446,512.21467,623.18685Z" style="stroke: lime;stroke-miterlimit: 10"/>
        <path d="M538.83681,551.14773c.90347,1.3314,8.42812,4.47723,11.52986,4.62879,5.116.25,13.27465-2.73591,17.6-10.50379,9.41927-16.91579,7.76762-49.06552-8.46016-51.96585-9.55156-1.707-14.8355-1.15094-23.35825.35928A102.46493,102.46493,0,0,0,516.4181,499.491c-11.73225,4.623-17.21823,13.27791-16.007,22.10366.72674,5.29545,5.48911,13.6813,9.6,13.5303,8.57856-.31507,12.82717-19.07619,22.22222-20.82955,10.53142-1.96542,21.33333,7.6553,16.71111,22.07576C547.51363,540.83505,535.03628,545.54742,538.83681,551.14773Z" style="stroke: lime;stroke-miterlimit: 10"/>
        <path d="M497.78811,448.07266c6.132,1.58767,6.88967,6.58264,7.12669,15.06877.18872,6.7552,18.35,9.384,22.51853,4.39139,3.48819-4.17763-.622-13.65983-5.09635-16.49745-14.1727-8.989-24.97088-20.23608-36.8592-33.351-16.11419,15.39384-47.17036,44.62628-47.17036,44.62628s1.17222,7.76318,3.674,8.78281c4.84818,1.97594,17.50707-9.72995,21.5704-6.29039,6.2421,5.284,3.40265,16.771,6.4,22.66918,2.20256,4.33419,8.73633,4.0511,10.31111,1.54294,2.87392-4.57733-.34783-8.59531-.54961-19.401-.13615-7.28929-.65734-15.32434,2.74219-19.40956C485.11181,447.01252,492.80655,446.78285,497.78811,448.07266Z" style="stroke: lime;stroke-miterlimit: 10"/>
        <path d="M729.24844,589.30958c-8.88767-6.09363-16.89306-10.88371-24.92049-18.24224-12.47969-11.43984-26.18212,5.68941-22.71224,16.407,2.24826,6.9444,6.8697,12.576,9.28984,19.21993,3.45078,9.473,5.36476,19.53274,14.66111,25.81335,8.60755,5.81524,18.19931-4.58715,23.82-16.91949,3.34462-7.33871,5.74236-15.36081,4.42708-21.0556C733.20356,591.89085,731.26658,590.69336,729.24844,589.30958Z" style="stroke: lime;stroke-miterlimit: 10"/>
        <path d="M431.67036,561.17762c-5.70109-.36788-14.40373,8.8198-15.9148,14.15923-2.07127,7.319.51493,20.91865,1.929,34.04617,1.73034,16.06271,2.05538,31.41861,3.80109,33.69706,2.40681,3.14139,14.39627,5.42141,17.53286,2.0234,4.8329-5.23573-.23724-31.66014,2.19258-38.58833,2.16445-6.1716,14.05851-8.7806,14.4-15.48864.25234-4.95681-7.96246-11.85827-12.47535-17.77826C438.21519,566.79357,436.75556,561.50569,431.67036,561.17762Z" style="stroke: lime;stroke-miterlimit: 10"/>
        <path d="M427.38754,536.19318c1.78694-7.43233,3.09948-15.19577,6.00135-22.0103,4.04766-9.50524,7.93012-15.08524,15.34718-22.82343-6.54227-7.99254-20.16541-13.524-28.28155-7.62436-12.55547,9.12666-24.82491,25.84317-30.68494,31.4014,5.09748,11.55871,9.73477,20.00585,18.01931,30.4923C407.78889,545.62879,425.41684,544.38966,427.38754,536.19318Z" style="stroke: lime;stroke-miterlimit: 10"/>
        <path d="M496.07474,575.39153c8.79531-2.16748,12.36962-14.36139,3.50716-19.58155-11.46133-6.75068-20.96749-16.69816-22.67231-28.36119-1.21549-8.31518,6.07995-14.63026-1.18433-19.19228-4.0786-2.5614-9.5967,1.34583-12.47209,4.45215-9.40061,10.15546-11.52365,18.66854-6.21892,33.13359C463.08767,562.34886,478.38381,579.751,496.07474,575.39153Z" style="stroke: lime;stroke-miterlimit: 10"/>
        <path d="M643.91181,617.14655c-7.93021-5.80137-17.372-3.07889-26.42092,3.55861,5.21137,8.35986,7.02717,13.43855,8.7395,24.48786,19.0441-.09953,52.18689-.857,52.18689-.857s2.4829-15.06264-.37335-17.43128C671.09549,621.14258,656.78455,626.56355,643.91181,617.14655Z" style="stroke: lime;stroke-miterlimit: 10"/>
        <path d="M588.51892,628.95162c-10.183,1.21666-22.66962,3.88611-33.14549,5.59426-1.55868,4.3168-2.32257,8.86622-.31589,12.95749,15.614,0,30.89627.71212,48.13359.71212C603.19115,639.25869,597.57083,627.87,588.51892,628.95162Z" style="stroke: lime;stroke-miterlimit: 10"/>
        <path d="M509.47665,407.8149c10.09779,17.81051,42.34505,36.5874,60.82049,33.2811-32.29028-19.23849-36.67925-23.1319-52.158-41.06441,0,0-4.87921.3774-6.09983,1.35331C510.68863,402.46478,509.10968,407.59558,509.47665,407.8149Z" style="stroke: lime;stroke-miterlimit: 10"/>
      </g>
      <g>
        <path d="M382.27383,641.89047c.28833,3.35019,12.40295,2.30459,12.11461-1.0456-.14646-1.70175-2.54913-30.61873-2.69559-32.32048-.28833-3.35019-12.40295-2.30458-12.11461,1.0456C379.7247,611.27174,382.12737,640.18872,382.27383,641.89047Z" style="stroke: lime;stroke-miterlimit: 10"/>
        <path d="M323.23455,518.00411c3.08957,1.317,7.85205-9.88694,4.76248-11.204-1.56937-.669-30.31464-15.64367-31.884-16.31266-3.08957-1.317-7.85205,9.88694-4.76248,11.204C292.9199,502.36044,321.66518,517.33512,323.23455,518.00411Z" style="stroke: lime;stroke-miterlimit: 10"/>
        <path d="M375.634,582.12736c1.25888,3.11735,12.53151-1.44785,11.27263-4.56519-.63946-1.58348-13.12969-29.56018-13.76915-31.14366-1.25888-3.11735-12.53151,1.44785-11.27263,4.56519C362.50435,552.56718,374.99458,580.54388,375.634,582.12736Z" style="stroke: lime;stroke-miterlimit: 10"/>
        <path d="M235.243,482.40114c-3.35507-.13667-3.84927,12.03007-.4942,12.16674,1.70423.06942,31.66184,1.20827,33.36607,1.27769,3.35507.13667,3.84927-12.03007.4942-12.16674C266.90479,483.60941,236.94719,482.47056,235.243,482.40114Z" style="stroke: lime;stroke-miterlimit: 10"/>
      </g>
      <g>
        <path d="M790.32235,230.14251c3.35019.28833,2.30458,12.40295-1.0456,12.11461-1.70175-.14646-30.61873-2.54913-32.32048-2.69559-3.35019-.28833-2.30458-12.40295,1.0456-12.11461C759.70362,227.59338,788.62059,229.996,790.32235,230.14251Z" style="stroke: lime;stroke-miterlimit: 10"/>
        <path d="M664.436,176.10322c1.317,3.08957-9.88694,7.85205-11.204,4.76248-.669-1.56937-14.64367-29.31464-15.31266-30.884-1.317-3.08957,9.88694-7.85205,11.204-4.76248C649.79232,146.78858,663.767,174.53385,664.436,176.10322Z" style="stroke: lime;stroke-miterlimit: 10"/>
        <path d="M730.59808,222.66625c3.17282,1.1117-.86013,12.58552-4.03294,11.47382-1.61165-.5647-30.14194-11.73271-31.7536-12.2974-3.17282-1.1117.86013-12.58552,4.03294-11.47382C700.45614,210.93355,728.98643,222.10156,730.59808,222.66625Z" style="stroke: lime;stroke-miterlimit: 10"/>
        <path d="M629.833,90.11164c-.13667-3.35507,12.03007-3.84927,12.16674-.4942.06942,1.70423,1.20827,31.66184,1.27769,33.36607.13667,3.35507-12.03007,3.84927-12.16674.4942C631.04129,121.77347,629.90244,91.81587,629.833,90.11164Z" style="stroke: lime;stroke-miterlimit: 10"/>
      </g>
      <g>
        <path d="M843,505.65s-3.80558,8.5-8.5,8.5-8.5-8.5-8.5-8.5,3.80558-8.5,8.5-8.5S843,505.65,843,505.65Z" style="stroke: lime;stroke-miterlimit: 10"/>
        <path d="M813.7319,322.74493s-3.80558,8.5-8.5,8.5-8.5-8.5-8.5-8.5,3.80558-8.5,8.5-8.5S813.7319,322.74493,813.7319,322.74493Z" style="stroke: lime;stroke-miterlimit: 10"/>
        <path d="M671.971,691.51535s8.5-3.80558,8.5-8.5-8.5-8.5-8.5-8.5-8.5,3.80558-8.5,8.5S671.971,691.51535,671.971,691.51535Z" style="stroke: lime;stroke-miterlimit: 10"/>
        <path d="M492.0659,669.24726s8.5-3.80558,8.5-8.5-8.5-8.5-8.5-8.5-8.5,3.80558-8.5,8.5S492.0659,669.24726,492.0659,669.24726Z" style="stroke: lime;stroke-miterlimit: 10"/>
        <path d="M824.2319,209.29309s-3.80558,8.5-8.5,8.5-8.5-8.5-8.5-8.5,3.80558-8.5,8.5-8.5S824.2319,209.29309,824.2319,209.29309Z" style="stroke: lime;stroke-miterlimit: 10"/>
        <path d="M699.66659,171.81684c3.31946,3.31946,0,12.02082,0,12.02082s-8.70136,3.31946-12.02082,0,0-12.02082,0-12.02082S696.34713,168.49739,699.66659,171.81684Z" style="stroke: lime;stroke-miterlimit: 10"/>
        <path d="M669.17767,64.32725c0,4.69442-8.5,8.5-8.5,8.5s-8.5-3.80558-8.5-8.5,8.5-8.5,8.5-8.5S669.17767,59.63283,669.17767,64.32725Z" style="stroke: lime;stroke-miterlimit: 10"/>
        <path d="M768.4166,85.22338c3.31946,3.31946,0,12.02082,0,12.02082s-8.70136,3.31946-12.02082,0,0-12.02082,0-12.02082S765.09714,81.90392,768.4166,85.22338Z" style="stroke: lime;stroke-miterlimit: 10"/>
        <path d="M790.88282,106.59571c3.31946,3.31946,0,12.02082,0,12.02082s-8.70136,3.31946-12.02082,0,0-12.02082,0-12.02082S787.56337,103.27626,790.88282,106.59571Z" style="stroke: lime;stroke-miterlimit: 10"/>
        <path d="M686.54973,118.16247c0,3.06869-5.55635,5.55635-5.55635,5.55635s-5.55635-2.48766-5.55635-5.55635,5.55635-5.55635,5.55635-5.55635S686.54973,115.09379,686.54973,118.16247Z" style="stroke: lime;stroke-miterlimit: 10"/>
        <path d="M759.46254,193.49581s-2.48766,5.55635-5.55635,5.55635-5.55635-5.55635-5.55635-5.55635,2.48766-5.55635,5.55635-5.55635S759.46254,193.49581,759.46254,193.49581Z" style="stroke: lime;stroke-miterlimit: 10"/>
        <path d="M723.85485,149.303c4.25406,4.25406,0,15.4053,0,15.4053s-11.15124,4.25406-15.4053,0,0-15.4053,0-15.4053S719.60079,145.049,723.85485,149.303Z" style="stroke: lime;stroke-miterlimit: 10"/>
        <path d="M708.33611,64.32725c0,6.01614-10.89319,10.89319-10.89319,10.89319s-10.89319-4.877-10.89319-10.89319,10.89319-10.89319,10.89319-10.89319S708.33611,58.31111,708.33611,64.32725Z" style="stroke: lime;stroke-miterlimit: 10"/>
        <path d="M824.2319,174.11381s-4.877,10.89319-10.89319,10.89319-10.89319-10.89319-10.89319-10.89319,4.877-10.89319,10.89319-10.89319S824.2319,174.11381,824.2319,174.11381Z" style="stroke: lime;stroke-miterlimit: 10"/>
        <path d="M803.339,72.75386c6.05668,6.05668,0,21.93316,0,21.93316s-15.87649,6.05668-21.93316,0,0-21.93316,0-21.93316S797.28232,66.69719,803.339,72.75386Z" style="stroke: lime;stroke-miterlimit: 10"/>
        <path d="M193.86471,520.29956s3.80558-8.5,8.5-8.5,8.5,8.5,8.5,8.5-3.80558,8.5-8.5,8.5S193.86471,520.29956,193.86471,520.29956Z" style="stroke: lime;stroke-miterlimit: 10"/>
        <path d="M321.43,543.755s8.70136-3.31946,12.02082,0,0,12.02082,0,12.02082-8.70136,3.31946-12.02082,0S321.43,543.755,321.43,543.755Z" style="stroke: lime;stroke-miterlimit: 10"/>
        <path d="M348.91894,674.26541c0-4.69442,8.5-8.5,8.5-8.5s8.5,3.80558,8.5,8.5-8.5,8.5-8.5,8.5S348.91894,678.95983,348.91894,674.26541Z" style="stroke: lime;stroke-miterlimit: 10"/>
        <path d="M244.68,652.36928c-3.31946-3.31946,0-12.02082,0-12.02082s8.70136-3.31946,12.02082,0,0,12.02082,0,12.02082S247.99947,655.68874,244.68,652.36928Z" style="stroke: lime;stroke-miterlimit: 10"/>
        <path d="M222.21379,629.99695c-3.31946-3.31946,0-12.02082,0-12.02082s8.70136-3.31946,12.02082,0,0,12.02082,0,12.02082S225.53324,633.3164,222.21379,629.99695Z" style="stroke: lime;stroke-miterlimit: 10"/>
        <path d="M338.54689,614.43019c0-3.06869,5.55635-5.55635,5.55635-5.55635s5.55635,2.48766,5.55635,5.55635-5.55635,5.55635-5.55635,5.55635S338.54689,617.49887,338.54689,614.43019Z" style="stroke: lime;stroke-miterlimit: 10"/>
        <path d="M263.63407,532.09685s2.48766-5.55635,5.55635-5.55635,5.55635,5.55635,5.55635,5.55635-2.48766,5.55635-5.55635,5.55635S263.63407,532.09685,263.63407,532.09685Z" style="stroke: lime;stroke-miterlimit: 10"/>
        <path d="M297.24176,564.88432s11.15124-4.25406,15.4053,0,0,15.4053,0,15.4053-11.15124,4.25406-15.4053,0S297.24176,564.88432,297.24176,564.88432Z" style="stroke: lime;stroke-miterlimit: 10"/>
        <path d="M306.7605,674.26541c0-6.01614,10.89319-10.89319,10.89319-10.89319s10.89319,4.877,10.89319,10.89319-10.89319,10.89319-10.89319,10.89319S306.7605,680.28155,306.7605,674.26541Z" style="stroke: lime;stroke-miterlimit: 10"/>
        <path d="M192.86471,554.47885s4.877-10.89319,10.89319-10.89319,10.89319,10.89319,10.89319,10.89319S209.774,565.372,203.7579,565.372,192.86471,554.47885,192.86471,554.47885Z" style="stroke: lime;stroke-miterlimit: 10"/>
        <path d="M208.502,640.65005s17.69421-6.75011,24.44432,0,0,24.44432,0,24.44432-17.69421,6.75011-24.44432,0S208.502,640.65005,208.502,640.65005Z" style="stroke: lime;stroke-miterlimit: 10"/>
        <path d="M390.46056,498.26651c3.31946,3.31946,12.02082,0,12.02082,0s3.31946-8.70136,0-12.02082-12.02082,0-12.02082,0S387.14111,494.94705,390.46056,498.26651Z" style="stroke: lime;stroke-miterlimit: 10"/>
        <path d="M431.32049,419.7876c3.31946,3.31946,12.02082,0,12.02082,0s3.31946-8.70136,0-12.02082-12.02082,0-12.02082,0S428.001,416.46814,431.32049,419.7876Z" style="stroke: lime;stroke-miterlimit: 10"/>
        <path d="M594.27777,315.77576s3.31946-8.70136,0-12.02082-12.02082,0-12.02082,0-3.31946,8.70136,0,12.02082S594.27777,315.77576,594.27777,315.77576Z" style="stroke: lime;stroke-miterlimit: 10"/>
        <path d="M633.73138,238.47392s3.31946-8.70136,0-12.02082-12.02082,0-12.02082,0-3.31946,8.70136,0,12.02082S633.73138,238.47392,633.73138,238.47392Z" style="stroke: lime;stroke-miterlimit: 10"/>
        <path d="M364.471,64.26535s8.5-3.80558,8.5-8.5-8.5-8.5-8.5-8.5-8.5,3.80558-8.5,8.5S364.471,64.26535,364.471,64.26535Z" style="stroke: lime;stroke-miterlimit: 10"/>
        <path d="M538.971,85.70451s8.5-3.80558,8.5-8.5-8.5-8.5-8.5-8.5-8.5,3.80558-8.5,8.5S538.971,85.70451,538.971,85.70451Z" style="stroke: lime;stroke-miterlimit: 10"/>
        <path d="M200.721,227.76535c4.69442,0,8.5-8.5,8.5-8.5s-3.80558-8.5-8.5-8.5-8.5,8.5-8.5,8.5S196.02655,227.76535,200.721,227.76535Z" style="stroke: lime;stroke-miterlimit: 10"/>
        <path d="M221.971,406.91857c4.69442,0,8.5-8.5,8.5-8.5s-3.80558-8.5-8.5-8.5-8.5,8.5-8.5,8.5S217.27655,406.91857,221.971,406.91857Z" style="stroke: lime;stroke-miterlimit: 10"/>
      </g>
    </g>
    <path id="MAP" d="M851.545,214.67075,847.1297,68.26768c-20.67413,2.02026-41.25854-15.22534-42.98541-35.52209L660.779,28.52744c-9.173.44507-18.46832,10.10217-27.80627,10.44141,0,0-195.88373,3.38623-214.63147,3.40051-64.6972.04944-127.82751-4.15125-179.48059,42.34045-33.74829,30.37622-48.004,71.17114-50.09143,116.89539-.3197,30.68005-6.16614,286.15808-6.16614,286.15808-.28119,6.16968-16.23114,26.52905-16.55707,32.5769l-2.11017,154.19037c24.179,2.722,41.00861,24.79773,38.51971,48.53082L358.176,715.62052c9.62415-.60205,19.40613-15.39551,29.28271-15.87976,0,0,251.13232-3.42432,277.80487-3.33282,43.03571.14758,94.42291-15.5462,126.18658-44.41589,28.57568-25.97217,45.40259-60.88739,50.92065-99.34644.322-2.24487,5.90277-37.92883,5.78625-87.90833-.142-60.92883-5.98523-143.79529-5.38782-221.92554C842.83093,234.75547,851.76782,222.51255,851.545,214.67075ZM781.40582,72.75388s15.87653-6.05676,21.93317,0,0,21.93323,0,21.93323-15.87646,6.05664-21.93317,0S781.40582,72.75388,781.40582,72.75388ZM778.862,106.5958s8.70135-3.31958,12.02081,0c3.31946,3.31934,0,12.02075,0,12.02075s-8.70136,3.31946-12.02081,0S778.862,106.5958,778.862,106.5958Zm10.41473,135.66138c-1.70172-.14648-30.61871-2.54919-32.3205-2.69556-3.35016-.28833-2.30457-12.40308,1.04565-12.11475,1.70172.14648,30.61871,2.54919,32.32043,2.69556C793.67255,230.43076,792.627,242.54551,789.27673,242.25718Zm-32.881-157.03381s8.70142-3.31946,12.02087,0,0,12.02087,0,12.02087-8.70142,3.31934-12.02087,0C753.07636,93.92466,756.39575,85.22336,756.39575,85.22336Zm-2.48956,102.71606c3.06866,0,5.55634,5.5564,5.55634,5.5564s-2.48767,5.55627-5.55634,5.55627-5.55634-5.55627-5.55634-5.55627S750.83752,187.93943,753.90619,187.93943Zm7.0885,80.403c14.02094-.11609,29.15411-3.84619,29.86163,10.4021,1.162,23.39832-.42975,55.27563-.52179,78.31323-.01178,2.97937.83612,6.22083-1.66144,8.77722-5.99036-.17883-12.80695-4.9823-17.97742-8.1145-8.61737-5.22046-14.02466-11.46118-13.9101-20.56506.1026-8.15515,2.64478-17.57178,1.74652-25.0802-.92957-7.76941-2.74548-13.12012-7.69562-20.70166C744.41882,281.54453,748.83752,268.443,760.99469,268.34238ZM726.56512,234.14c-1.61163-.5647-30.14191-11.73267-31.7536-12.29736-3.17279-1.11157.86017-12.58545,4.033-11.47375,1.61163.5647,30.142,11.73267,31.7536,12.29736C733.77087,223.77793,729.738,235.25181,726.56512,234.14Zm-38.91937-50.30225c-3.31946-3.31958,0-12.02087,0-12.02087s8.70135-3.31946,12.02081,0,0,12.02087,0,12.02087S690.96521,187.15708,687.64575,183.83774Zm36.20911-34.53467c4.254,4.254,0,15.40527,0,15.40527s-11.15125,4.254-15.40533,0,0-15.40527,0-15.40527S719.60077,145.04893,723.85486,149.30308Zm-26.41193-95.869s10.89319,4.87708,10.89319,10.89319-10.89319,10.89319-10.89319,10.89319-10.89319-4.87708-10.89319-10.89319S697.44293,53.43406,697.44293,53.43406Zm-16.44958,59.172s5.5564,2.48779,5.5564,5.5564-5.5564,5.5564-5.5564,5.5564-5.55634-2.48767-5.55634-5.5564S680.99335,112.60605,680.99335,112.60605Zm14.74182,139.29688c10.83417,2.2782,22.35327,4.603,32.68958,8.48755-6.32007,14.099-8.26678,25.04321-2.90271,32.26807,4.16071,5.604,9.83649,3.288,12.68359,11.13477,2.58325,7.11938,2.18256,42.9397-10.97784,36.76917.9986-24.11328-3.3363-41.23108-24.2417-55.95386-8.92426-6.28479-23.1485-10.80627-34.321-8.03918-9.5545,2.36646-18.43732,7.51233-24.09375,6.60376-3.14636-.50537-5.29443,1.7688-6.00458-2.6521-.88324-5.49829,18.37561-25.97009,30.95422-39.55762C676.94714,246.73667,685.53772,249.75852,695.73517,251.90293ZM752.1156,479.34312c-13.33435-4.55249-7.28455-32.25537-15.43781-43.73706-4.26984-6.0127-23.27728-15.49939-20.41046-22.438,4.15509-10.0564,23.46582-7.21167,30.22327-3.34363,16.49829,9.44373,11.27435,21.18115,9.58527,37.71155C754.82776,459.74937,758.54443,481.53794,752.1156,479.34312Zm-68.99487-83.79395c2.75146,2.09814,6.91193,4.9873,10.459,16.595,1.17218,3.83618-.61957,8.449-.01843,13.26038,1.46582,11.733,3.09106,24.64636-5.62714,30.35486-7.39941,4.845-16.052-3.87476-22.0542-8.35107-7.74963-5.77966-13.7652-13.58252-25.14294-18.80469-5.08179-2.33252,4.24219-6.08032,7.40747-7.847,20.89484-11.66321,16-28.94592,6.57776-44.79065-3.304-10.20068,13.37109-14.12036,31.10089-14.84387,17.3432-.70764,36.09814-2.889,36.63245,2.55725,1.118,11.39648-14.91492,9.01367-28.74878,7.04785-7.334-1.042-14.34845,1.65576-16.94012,5.77283C673.43457,381.79343,674.83539,389.2313,683.12073,395.54917Zm-85.85156,93.592c-2.63861-7.56384-16.1037-7.65649-19.20667-17.05444-3.04877-9.23437,9.6712-12.86365,21.25311-11.48315,15.50189,1.84778,19.6474,10.2666,38.24438,15.39819,16.70667,4.60986-8.17743,7.07678-13.68744,9.91187-10.0993,5.19629-18.38873,16.48389-16.43921,28.50916,2.7879,17.1969,30.42444,32.56335,43.71942,21.38306,7.7113-6.48474,12.0647-14.38354,12.31183-20.96667.2868-7.63525-3.7489-14.45862-4.332-18.43384-.26807-1.82788,1.61615-2.34155,3.56439-2.76672,6.921,4.71985,12.4292,10.45435,16.95136,14.7644,4.77,4.54626,8.44312,7.748,11.52,16.03064,2.38245,6.4126,2.39325,22.0459-5.29114,23.07471-5.48419.73438-12.00043-5.686-16.49915-3.31689-5.35608,2.82043-2.046,14.82959-5.36768,20.82886-6.86676,12.40161-38.762-6.14368-46.32-11.99609-12.16962-9.42346-18.91724-17.9364-21.52356-33.00146C594.89563,512.67539,599.64459,495.95054,597.26917,489.14121Zm-65.03583,25.1543c-9.39508,1.7533-13.64368,20.5144-22.22223,20.82947-4.1109.151-8.87329-8.23486-9.6-13.53027-1.21124-8.82581,4.27472-17.48059,16.007-22.10364a102.47129,102.47129,0,0,1,19.73016-5.825c8.52277-1.51025,13.8067-2.06616,23.35828-.35925,16.22778,2.90027,17.87939,35.05,8.46014,51.96594-4.32538,7.76782-12.484,10.75366-17.6,10.50366-3.10168-.15149-10.62634-3.29736-11.52985-4.62866-3.80054-5.60034,8.67682-10.31274,10.10767-14.77661C553.56665,521.95078,542.76477,512.33005,532.23334,514.29551Zm-52.52-44.6814c.20178,10.80566,3.42352,14.82373.54962,19.40112-1.57483,2.50806-8.10858,2.79114-10.31116-1.543-2.99731-5.89819-.1579-17.38525-6.4-22.66919-4.06335-3.43958-16.72223,8.26636-21.57043,6.29028-2.50183-1.01953-3.674-8.78271-3.674-8.78271s31.05615-29.23242,47.17035-44.62634c11.88831,13.115,22.68652,24.36218,36.85919,33.35107,4.4743,2.83752,8.58453,12.31982,5.09637,16.49744-4.16858,4.99268-22.32983,2.36377-22.51855-4.39136-.237-8.48608-.99469-13.4812-7.12671-15.06885-4.98151-1.28979-12.67627-1.06006-15.33252,2.132C479.056,454.28977,479.57721,462.3248,479.71338,469.61411ZM402.1,428.66294c-20.80078-.00208-13.91284-10.22888-10.60742-19.524,5.572-15.66858-6.64093-17.25842-1.12592-37.80176,2.85565-10.63709,11.73676-10.799,21.85443-9.94495,10.32227.87134,15.33649,6.17664,19.9234,15.69019,7.99866,16.59009,7.2533,21.35779-5.80743,32.17529C416.77814,417.17466,410.45557,428.66367,402.1,428.66294Zm.38141,69.60352s-8.70135,3.31958-12.02081,0c-3.31946-3.31934,0-12.02075,0-12.02075s8.70135-3.31946,12.02081,0S402.48138,498.26646,402.48138,498.26646ZM365.65558,333.4166c2.11169,4.8479,6.3009,8.65161,8.40631,15.31067,2.10706,6.66418-4.02924,12.17749-12.79938,15.70642a62.57864,62.57864,0,0,1-21.8634,4.24c-13.02551.10059-26.42548-2.82886-31.16577-8.07007,8-9.20581,22.94574-7.71313,22.94574-7.71313s19.97394,4.01221,20.96539-7.90186c.71106-8.54541-3.94025-12.51306-12.62225-17.447,1.46985-6.45239,2.03973-14.77783-.88886-22.96582-4.45563-12.45728-7.28241-22.66162,5.51111-32.57959,6.965,6.35742,9.739,9.01367,18.03925,13.00806,9.4624,4.55371,11.7381,6.17529,22.543,7.6665,1.30212,4.99194.71613,7.675-2.36011,9.4126-6.22864,3.51807-11.14844,6.986-14.75555,11.03784C362.44043,318.92954,362.56293,326.31724,365.65558,333.4166ZM344.5,404.18369c-8.82111-9.96973-25.33331-1.86938-25.33331-1.86938s-3.1142-3.87488-2.4-5.60791c3.7652-9.13623,12.43884-13.79761,21.24445-15.31055,10.17584-1.74841,20.01129-1.463,26.9303,8.38025,4.15948,5.91736,4.99323,15.75183,3.64746,23.22009-1.66333,9.23059-8.6579,13.15674-16.35553,16.46777-4.64191,1.99683-12.08887-2.40332-12.08887-2.40332S355.57,416.69517,344.5,404.18369ZM283.87781,247.072c7.85956,11.17114,5.37195,23.97009,9.6,37.56433,3.84375,12.35864,15.11108,9.07959,21.86664,28.33093-8.03595,12.09155-19.26544,8.24451-30.41882.73315-5.06976-3.41431-9.77448-13.49377-10.879-19.9845-2.0509-12.052,3.68372-14.90942,4.85339-26.70459C279.7002,258.94175,275.34442,247.072,283.87781,247.072Zm90.66663-41.65906c-1.39685,2.55688-5.6889,9.25757-5.63849,13.39673.058,4.76465,5.28119,8.16748,4.99225,10.79968-.13129,1.19641-3.08038,3.74817-5.22351,3.30408-7.36078-1.52466-17.94171-11.962-23.52979-21.09387-5.36078-8.76062-6.7431-17.27576-5.25964-23.77478,1.86011-8.14941,17.06757-4.12061,24.25854-10.292,7.54242-6.4729,7.60876-13.60181,19.00214-12.02551,28.12158,3.89075,47.75183,23.57312,52.10443,52.07434,1.28625,8.42236,1.49335,13.771,3.98322,19.20874,1.995,4.35669,5.45551,8.77063,12.11084,14.86841,7.15179,6.55273-.45734,15.136-11.73334,14.06445-16.335-1.55225-31.67834-5.59277-45.33331-14.77661-6.63507-4.4624-1.31635-5.93506,6.03357-7.01758,16.357-2.40918,22.9375-17.71924,20.6073-30.68945-1.62384-9.03918-6.84387-16.23-19.17419-17.83838C391.63824,194.30283,379.38348,196.555,374.54443,205.41294Zm115.04791,3.85132c9.50208,4.922,20.23431-1.86572,32.35974-17.0127,6.05328,4.66956,10.66364,17.47974,8.2038,25.58569-1.09894,3.62158-26.855,13.54431-36.50311,14.97241-9.31622,1.37891-18.95178,3.05273-28.83392,1.175-9.50824-1.80664-11.51227-33.86523-9.24432-42.16846,2.75128-10.07275,28.07922-23.84717,38.33154-14.71021C480.57147,189.75645,480.92572,204.77476,489.59235,209.26426Zm139.05579,83.91748c6.75934,2.4231,10.336,4.71289,11.3161,10.32031,1.23279,7.05261-2.1524,16.6145-3.0816,26.348-.7674,8.03845,1.51825,14.16907,2.19513,21.72571.89307,9.96936-6.86908,13.58276-15.76129,13.14526-8.54993-.42065-18.14453-4.53247-22.0946-12.97681-5.48114-11.717-15.28876-14.77979-15.69067-19.14233-.15338-1.66455,1.06268-3.51831,4.411-6.11426a126.4384,126.4384,0,0,0,16.55554-15.254C618.34955,298.12607,620.32318,290.19761,628.64813,293.18174Zm-6.93756-66.72864s8.70136-3.31946,12.02081,0,0,12.02087,0,12.02087-8.70135,3.31934-12.02081,0C618.39111,235.15439,621.71057,226.4531,621.71057,226.4531Zm-27.4328,89.32263s-8.70136,3.31946-12.02081,0,0-12.02075,0-12.02075,8.70135-3.31958,12.02081,0C597.59723,307.07432,594.27777,315.77573,594.27777,315.77573Zm-54.75555-11.6748c-11.79828-12.7395-32.237-27.7727-32.237-27.7727s-12.62775-7.177-10.02911-12.574c3.67163-7.62524,29.53741-14.01343,27.68835-6.71265-1.507,5.9502-.12,8.72949,1.75677,12.40942,3.28925,6.44946,10.26752,9.10229,15.64752,6.873,6.08112-2.51978,13.07867-24.51074,4.59924-39.58984,4.74677-2.15479,9.808-4.08179,11.24072,3.41016-.56665,18.45886,10.25208,26.689,24.015,13.48218,1.67773-1.60986,6.06366,6.57959,6.06366,6.57959S555.545,288.78281,539.52222,304.10093Zm-27.48291,97.28394c1.22058-.97583,6.09979-1.35327,6.09979-1.35327,15.47876,17.9325,19.86774,21.82593,52.158,41.06445-18.4754,3.30627-50.72266-15.4707-60.8205-33.28113C509.10968,407.59556,510.6886,402.4647,512.03931,401.38486Zm-23.243-90.7561C477.3,299.35361,465.6311,295.22642,463.07776,290.21458c-2.963-5.81555-2.2002-9.09509,8.29633-6.02234,22.21808,6.50415,50.13336,41.15381,50.13336,41.15381l-10.09839,8.89758S496.42322,317.38364,488.79633,310.62876Zm86.97223-116.6731c-.52478,8.1521-7.40668,19.91309-16.70691,25.02808-3.34985,1.84229-8.64844-4.98352-8.6358-8.88281.0285-8.66907-.01471-20.126-3.15137-24.30151-9.4101-12.52649-27.46185-3.67236-20.54633-23.45178,2.30994-6.60706,7.13959-8.788,12.033-8.9762,9.00262-.34656,17.07214,8.46094,24.88245,20.13513C569.1698,181.76646,576.34174,185.05234,575.76855,193.95566ZM474.75067,362.46543c3.19666,9.0697-14.3988,12.373-14.3988,12.373s-16.5083-22.68994-29.98523-30.50269c-18.77631-10.88489-40.033-12.33789-40.033-12.33789s.09015-7.53613,6.72937-14.96c6.40283-7.15967,14.98065-7.40332,25.00739-4.27271C448.9856,321.16831,462.28571,337.33335,474.75067,362.46543ZM431.3205,407.7667s8.70135-3.31934,12.02081,0c3.31946,3.31958,0,12.02087,0,12.02087s-8.70135,3.31946-12.02081,0S431.3205,407.7667,431.3205,407.7667ZM558.944,376.10154c-3.86676-10.37708,8.79529-22.73352,14.356-18.2948,12.26666,9.79175,6.83734,17.79785,23.766,25.707,16.234,7.58472,30.70978,2.73755,38.57483,8.17822,4.1748,2.88794,3.09113,7.45447-4.74078,13.8269-17.06671,13.88647-33.94794,2.86121-48.36981-7.11621C572.24609,391.28806,562.741,386.29172,558.944,376.10154Zm122.68182-51.23035c14.34082,7.00244,13.33563-7.52612,21.8075-10.80054,2.775-1.07251,4.87463,11.29956,4.02966,14.48-2.81311,10.58679-8.118,15.20728-19.91113,17.20947-10.73193,1.822-22.60156-.85767-28.68158-8.57642-9.15265-11.61963-3.03253-24.04431,5.8075-32.252,2.771-2.57275,8.3092-5.62427,10.47327-5.74609,2.38019-.134,5.89093,2.71973,5.89093,2.71973C670.33826,310.25706,674.0033,321.149,681.62585,324.87119ZM660.67767,55.82725s8.5,3.80566,8.5,8.5-8.5,8.5-8.5,8.5-8.5-3.80566-8.5-8.5S660.67767,55.82725,660.67767,55.82725Zm-11.55432,89.392c.66895,1.56946,14.64362,29.31458,15.31262,30.884,1.317,3.08948-9.8869,7.85205-11.204,4.76245-.66895-1.56946-14.64362-29.31458-15.31262-30.884C636.60236,146.89219,647.80627,142.12961,649.12335,145.21921Zm-7.1236-55.60181c.0694,1.70422,1.20825,31.66187,1.27771,33.36609.13666,3.355-12.03009,3.84924-12.16675.49414-.06946-1.7041-1.20825-31.66174-1.27771-33.366C629.69635,86.75657,641.8631,86.2623,641.99976,89.61741Zm-20.84222,94.76086c6.11121,7.95215,10.63849,17.43579,16.735,26.21533-9.46094,8.98169-19.39374,14.76807-29.15417,22.782-8.05121,6.6106-31.62341,8.09229-31.29022-.47961.37408-9.62268,7.73553-14.60266,13.62738-22.28577a44.32006,44.32006,0,0,0,8.20862-20.74829C600.021,183.4376,616.9314,178.87925,621.15753,184.37827ZM585.74341,91.202c4.77167-3.48193,14.27924-3.43506,18.98993-2.66321,3.215,9.02942,4.23175,17.54517,5.09,26.17712a207.79894,207.79894,0,0,1,1.29437,26.87476c-.22729,8.188-1.40491,13.01794-4.509,17.4552-3.7168,5.31287-10.1955,9.44519-21.11218,9.74817-3.6347-13.104-4.47412-16.71777-14.28644-27.86292,7.65674-8.86682,15.02875-14.09192,16.408-24.36682C588.5719,109.45811,587.7,99.60435,585.74341,91.202ZM538.97095,68.70444s8.5,3.80566,8.5,8.5-8.5,8.5-8.5,8.5-8.5-3.80554-8.5-8.5S538.97095,68.70444,538.97095,68.70444Zm-39.98,17.02307c7.75476-.30017,17.50061,2.43079,23.39587,2.83826,9.66876.66809,40.0929-2.91846,45.16589,8.7478,2.95685,6.7998,1.09521,12.637-3.33173,19.18689-7.80518,11.548-20.764,13.0863-30.40955,12.20862-9.3175-.84778-13.88324-12.35229-22.43079-18.7019-8.52985-6.33618-16.06775-3.95166-21.39917-9.81018C483.0094,92.5355,489.5274,86.0936,498.99091,85.72751Zm-67.32056,3.90637c.93146-2.01367,26.798.2373,42.42963.2373,1.98755,4.53809,2.93646,8.62756,1.20929,13.05554-8.18207,1.78015-20.0025,8.51355-28.23151,6.29041C437.3158,106.57981,430.09851,93.03208,431.67035,89.63389Zm-4.97272,48.79956c9.24487-2.56506,15.863-7.5011,23.22461-11.05713,4.82263,13.90747,11.06909,20.53015,19.91107,16.61609,6.34125-2.807,2.03455-9.88916,7.9408-18.51514,3.55835-5.197,11.87079-5.18884,15.05182-3.44177,11.02222,6.053,10.41925,27.97632,9.36688,35.72461-6.36609,5.74243-23.47345-3.415-31.76691-1.7804-4.35339.85828-12.59564,2.376-15.70154,4.27283-6.08453,3.71582-12.57709,8.752-20.68359,6.09131-5.4881-1.801-7.49835-11.28516-15.526-12.02563-9.00732-.83081-36.17938-4.41626-42.0752-12.01318-1.44659-1.86426-4.17615-7.07288-2.10516-8.69043,3.88409-3.03369,16.91028,3.76245,29.75909,5.73657C413.403,140.78159,420.61829,140.12021,426.69763,138.43345ZM364.47095,47.26536s8.5,3.80554,8.5,8.5-8.5,8.5-8.5,8.5-8.5-3.80554-8.5-8.5S364.47095,47.26536,364.47095,47.26536ZM353.56665,92.7197c7.05017-1.66028,51.69513-7.61316,54.04443,1.30554,1.98352,7.5293,6.4,14.59839,9.94458,22.55054-13.47485,13.22327-19.54456-6.91333-45.26306-4.86621C358.38513,112.81663,351.78888,109.09849,353.56665,92.7197ZM330.8111,103.63877s6.97705,13.6626,10.24561,18.2439c4.72028,6.61572,14.88379,18.80823,17.60626,28.28149-4.82812,9.7605-12.79132,14.48584-22.99261,16.97217-16.07422,2.67224-32.3349-11.34766-30.93335-24.33081.94818-8.78271-3.42059-8.833-4.09814-15.54785C298.1,102.096,330.8111,103.63877,330.8111,103.63877Zm-89.567,105.32129c2.52563-27.48706,8.838-49.83508,19.52258-49.83508,17.42224,0,37.50519,30.17236,47.46667,54.83337,7.06891,17.5,31.80011,48.13965,6.93335,61.68726-4.59015-18.207-3.49634-36.90393-18.78778-49.87231-11.73792-9.95459-27.80713-9.99976-33.83447,3.13965-5.78241,12.60535-1.676,21.11182-22.75555,20.47339C240.3222,238.52646,240.07172,221.71982,241.24408,208.96006ZM235.243,482.40122c1.70422.06934,31.6618,1.20825,33.366,1.27759,3.3551.13672,2.8609,12.30347-.4942,12.16675-1.70422-.06934-31.6618-1.20825-33.366-1.27759C231.39368,494.43125,231.88788,482.2645,235.243,482.40122Zm-13.272-92.48267c4.69446,0,8.5,8.5,8.5,8.5s-3.80554,8.5-8.5,8.5-8.5-8.5-8.5-8.5S217.27655,389.91855,221.97095,389.91855Zm-21.25-179.1532c4.69446,0,8.5,8.5,8.5,8.5s-3.80554,8.5-8.5,8.5-8.5-8.5-8.5-8.5S196.02655,210.76536,200.72095,210.76536Zm10.14374,309.53418s-3.80554,8.5-8.5,8.5-8.5-8.5-8.5-8.5,3.8056-8.5,8.5-8.5S210.86469,520.29954,210.86469,520.29954Zm-18,34.17932s4.87708-10.89319,10.89319-10.89319,10.89319,10.89319,10.89319,10.89319S209.774,565.372,203.75787,565.372,192.86469,554.47886,192.86469,554.47886Zm40.08169,110.6155s-17.69425,6.75014-24.44433,0,0-24.44433,0-24.44433,17.69418-6.75007,24.44433,0S232.94638,665.09436,232.94638,665.09436Zm1.28824-35.09744s-8.70135,3.31946-12.02081,0,0-12.02081,0-12.02081,8.70135-3.31946,12.02081,0S234.23462,629.99692,234.23462,629.99692Zm22.46619,22.37238s-8.70135,3.31946-12.02081,0,0-12.02081,0-12.02081,8.70135-3.31946,12.02081,0S256.70081,652.3693,256.70081,652.3693Zm12.48962-114.71613c-3.06873,0-5.55634-5.5564-5.55634-5.5564s2.48761-5.55627,5.55634-5.55627,5.55634,5.55627,5.55634,5.55627S272.25909,537.65317,269.19043,537.65317Zm-4.3349-80.68909c-10.49323-.41345-22.58728.44666-27.55554-5.33557-2.74207-3.19141-2.10321-22.314-2.19611-26.967-.46-23.043,3.38135-60.11475,4.56647-62.75391,13.8537-3.02222,28.02142,7.0564,31.05188,19.80322,4.60583,19.37329-11.02649,39.62488,6.40125,56.02271C283.01654,443.27817,273.15649,457.29111,264.85553,456.96409Zm11.2-102.09485c-11.08789,1.69763-17.02148-7.28516-26.84442-12.551-13.85681-7.42847-15.23206-8.17041-15.73956-25.44141-.31628-10.76318-.72095-28.48657,2.93958-38.47144,3.70239-10.09949,12.08887-11.15259,24.27539-15.13525,5.5871,11.8772-21.03821,42.0083-13.03821,58.20911,4.93951,10.00305,12.86346,7.77185,23.52679,10.13635C286.51648,335.01743,293.78888,352.15439,276.05554,354.86924Zm14.36792,28.74365c1.63086-3.02307,6.07654-4.62048,8.2099-1.23791,2.28687,24.19592,6.228,46.96448,30.04443,58.038,10.86151,5.04993,23.95233,6.69849,33.54071,4.56934,12.38312-2.74951,14.81482-16.14136,25.23993.71216,0,0-23.84161,26.80066-35.66956,38.04065-15.65906-10.14929-22.93335-17.15173-55.94073-20.119-5.57037-5.75037,15.94073-19.4646,2.963-33.52893C288.30884,418.70554,285.43835,411.82065,290.42346,383.61289ZM296.113,490.4874c1.56934.66907,30.31464,15.6438,31.884,16.31274,3.0896,1.317-1.67291,12.521-4.76245,11.204-1.5694-.66907-30.31464-15.64368-31.884-16.31262C288.261,500.37437,293.02344,489.17051,296.113,490.4874Zm1.12872,89.80225c-4.254-4.25415,0-15.40527,0-15.40527s11.15125-4.25415,15.40527,0,0,15.40527,0,15.40527S301.49579,584.54368,297.24176,580.28965Zm20.41193,104.869s-10.89319-4.87708-10.89319-10.89319,10.89319-10.89319,10.89319-10.89319,10.89319,4.877,10.89319,10.89319S317.65369,685.15861,317.65369,685.15861Zm15.79712-129.38287s-8.70135,3.31958-12.02081,0c-3.31946-3.31934,0-12.02075,0-12.02075s8.70142-3.31946,12.02081,0S333.45081,555.77573,333.45081,555.77573Zm10.6524,64.21082s-5.55634-2.48767-5.55634-5.55634,5.55634-5.5564,5.55634-5.5564,5.5564,2.48767,5.5564,5.5564S344.10321,619.98655,344.10321,619.98655Zm13.31573,62.77887s-8.5-3.8056-8.5-8.5,8.5-8.5,8.5-8.5,8.5,3.80554,8.5,8.5S357.41895,682.76542,357.41895,682.76542ZM375.634,582.12729c-.63947-1.5835-13.1297-29.56006-13.76916-31.14355-1.25885-3.11743,10.01379-7.68262,11.27264-4.56519.63947,1.5835,13.1297,29.56006,13.76916,31.14355C388.16553,580.67954,376.89294,585.24473,375.634,582.12729Zm6.63977,59.76318c-.14642-1.70178-2.54907-30.61871-2.69556-32.3205-.28833-3.35016,11.82629-4.39581,12.11462-1.04559.14642,1.70172,2.54913,30.61871,2.69556,32.3205C394.67676,644.195,382.56213,645.24064,382.2738,641.89048Zm7.49579-126.75391c5.86-5.55835,18.12946-22.2749,30.68494-31.40149,8.11615-5.89966,21.73926-.36816,28.28156,7.62439-7.41705,7.73816-11.29956,13.31812-15.34717,22.82349-2.90192,6.81445-4.21442,14.57788-6.00134,22.01025-1.9707,8.19653-19.59869,9.43555-19.59869,9.43555C399.50433,535.14243,394.86707,526.69517,389.76959,515.13657Zm51.44153,91.3786c-2.42981,6.92816,2.64032,33.3526-2.19257,38.58832-3.1366,3.398-15.126,1.118-17.5329-2.02344-1.74567-2.27844-2.07074-17.63434-3.80109-33.697-1.41406-13.1275-4.00031-26.72717-1.929-34.04626,1.511-5.33936,10.21375-14.5271,15.91479-14.15918,5.08521.32813,6.54486,5.616,11.46539,12.07068,4.51294,5.92,12.72772,12.82141,12.47534,17.77826C455.26959,597.73453,443.37555,600.34354,441.21112,606.51517Zm22.04205-93.80658c2.87537-3.1062,8.39349-7.01343,12.47211-4.45215,7.26428,4.562-.03119,10.8772,1.18433,19.19238,1.70477,11.663,11.21094,21.61047,22.6723,28.36108,8.86243,5.22021,5.28815,17.41406-3.50714,19.58154-17.691,4.35962-32.98712-13.0426-39.04053-29.54919C451.72949,531.37717,453.85254,522.86411,463.25317,512.70859Zm28.81274,156.53864s-8.5-3.80554-8.5-8.5,8.5-8.5,8.5-8.5,8.5,3.8056,8.5,8.5S492.06592,669.24723,492.06592,669.24723Zm47.361-21.685c-3.65607,0-22.56805.076-40.6189.54114-17.16638.44238-33.554,1.37286-35.30072-2.23743-4.66571-9.64337-5.14435-23.31921,1.0589-29.87665,5.17249-5.46783,14.43542-7.53284,23.09222-7.53284,19.33051,0,19.30377,10.59271,24.55627,14.73041,7.10571,5.5976,19.42047,8.85986,28.02771,11.59308C540.64172,639.77555,542.13574,642.39176,539.42688,647.56223Zm15.63068-.05884c-2.00671-4.09131-1.2428-8.64069.31586-12.95752,10.47589-1.70813,22.96252-4.37762,33.14551-5.59424,9.05194-1.0816,14.67224,10.30707,14.67224,19.26386C585.9538,648.21549,570.67151,647.50339,555.05756,647.50339Zm27.05737-44.96863c-4.47034-11.78772-9.42377-19.70239-20.74854-16.91711-10.91827,2.68518-10.12128,14.7536-9.6723,25.21985-5.50122,1.49194-16.13269-.06879-20.57245-3.36914-5.75092-4.275-9.46478-13.60516-8.17181-20.864.84357-4.73584,4.25867-15.9469,11.8526-13.5459,7.62555,2.41125,14.7052,3.25037,21.56635,2.05408,10.46344-1.82434,20.4187-7.43823,31.02759-12.00916,4.93317-2.12549,8.44568-1.69751,12.55261,1.933,7.07288,6.25232,15.10016,10.26392,23.48444,13.42883,7.45251,2.81323,15.18707,4.95728,22.78448,7.41138,2.59772.83911,5.09607,2.01611,7.42761,2.95166.45483,3.79028-.77478,6.27692-3.31189,10.198-10.98816-6.49469-22.00446-9.35791-32.95392-8.94458C605.50537,590.52982,593.7099,594.8317,582.11493,602.53477Zm35.376,18.17041c9.04883-6.63751,18.49066-9.36,26.4209-3.55865,12.87274,9.41705,27.18365,3.996,34.13214,9.75818,2.8562,2.36865.37335,17.43127.37335,17.43127s-33.14282.75751-52.18689.85706C624.51807,634.14371,622.70227,629.065,617.49091,620.70518Zm54.48,70.81018s-8.5-3.8056-8.5-8.5,8.5-8.5,8.5-8.5,8.5,3.8056,8.5,8.5S671.97095,691.51536,671.97095,691.51536Zm57.41571-75.92725c-5.62067,12.33234-15.21246,22.73468-23.82,16.91949-9.29633-6.28064-11.21033-16.34039-14.66107-25.81335-2.42017-6.644-7.04163-12.27557-9.28986-19.22-3.46991-10.71753,10.23254-27.84668,22.71222-16.40686,8.02747,7.35852,16.03284,12.14856,24.92047,18.24231,2.01819,1.38367,3.95514,2.58118,4.56531,5.22284C735.129,600.22727,732.73126,608.24937,729.38666,615.58811Zm65.61578-116.42468c-.05591,15.44385.2309,35.03784-1.77173,44.69495-2.44739,11.80151-6.96423,24.11084-18.00415,26.79822-8.64722,2.10486-19.40918-9.25952-26.10223-16.4502a33.99063,33.99063,0,0,1-8.95489-17.64832c-2.29584-12.65161-5.68787-25.938-11.45526-37.05566-3.80444-7.33362-9.04419-12.91907-14.25586-19.6178-6.92792-8.90479-5.69165-34.30884,1.0639-33.4187,8.0238,1.05725,4.00262,17.22388,8.1778,26.34839,4.63525,10.13013,14.79877,26.40271,25.06665,31.3335,13.48236,6.47424,22.23944,1.0365,24.88892-13.7085,1.76837-9.84131,10.12006-18.295,17.78455-15.31372C794.62555,476.3646,795.04791,486.63218,795.00244,499.16343Zm1.67456-55.026c-.42267,10.85071-11.316,14.87195-19.17126,14.07849-7.05017-.71216-4.01093-25.02588,1.48315-32.04541,10.3111-13.17432,1.42224-31.51147-14.04443-32.40161-7.59412-.437-14.18628-4.28406-17.06665-10.21631-4.24048-8.73291-2.02112-12.85425,11.91107-10.0791,3.58862.71484,8.34583,3.9751,14.87659,7.656,7.31146,4.12109,17.72742,8.76929,18.99921,10.9635,2.89819,5.00037,2.39087,14.47522,2.50818,24.28577C796.29956,426.98057,796.91711,437.97446,796.677,444.13743ZM805.23193,331.245c-4.69446,0-8.5-8.5-8.5-8.5s3.80554-8.5,8.5-8.5,8.5,8.5,8.5,8.5S809.92633,331.245,805.23193,331.245Zm10.5-113.4519c-4.69446,0-8.5-8.5-8.5-8.5s3.80554-8.5,8.5-8.5,8.5,8.5,8.5,8.5S820.42633,217.79307,815.73193,217.79307Zm-2.39325-32.78613c-6.01611,0-10.89319-10.89307-10.89319-10.89307s4.87708-10.89331,10.89319-10.89331,10.89325,10.89331,10.89325,10.89331S819.35486,185.00693,813.33868,185.00693ZM843,505.65s-3.8056,8.5-8.5,8.5-8.5-8.5-8.5-8.5,3.8056-8.5,8.5-8.5S843,505.65,843,505.65Z" style="fill: #fff;opacity: 0.25"/>
  </g>
</svg>
