<svg xmlns="http://www.w3.org/2000/svg" viewBox="0 0 970.96816 973.41373"><title>INNER_MAP</title><path d="M970.4624,263.97416l-6.209-212.5874c-29.13062,0-55.01978-22.38013-57.44824-50.88208L702.19775,2.58134c-12.89954.625-25.97107,14.186-39.10254,14.66235,0,0-275.46149,2.75513-301.82556,2.77527-90.98041.06946-183.75745-5.82935-256.39453,59.45691C57.41656,122.13164,38.36944,181.41826,35.434,245.62675c-.44958,43.08252-9.67114,412.83893-9.67114,412.83893-.39539,8.66376-18.82507,26.25354-19.28339,34.74646L.51208,911.73466c27.19543,3.66406,48.16833,24.95038,48.16833,53.14966,0,2.37732-.44452,8.0163-.44452,8.0163l228.42645-5.46515c13.53394-.8454,27.28986-21.61926,41.17883-22.29919,0,0,353.15479-4.80865,390.66309-4.68018,60.51892.20728,132.78223-21.83081,177.44983-62.37128,40.18457-36.47156,63.84741-85.5014,71.60718-139.50775.45288-3.15234,8.30078-53.26178,8.137-123.44574-.19971-85.55963-8.41675-201.92535-7.57666-311.64008C958.20825,292.17827,970.77575,274.98588,970.4624,263.97416ZM843.12609,339.3427c19.71692-.163,40.99792-5.401,41.99292,14.6073,1.634,32.85718-.60437,77.621-.73376,109.97186-.0166,4.18365,1.17578,8.73547-2.33643,12.32532-8.424-.25116-18.00977-6.99634-25.28076-11.39484-12.11816-7.33081-19.72217-16.09436-19.561-28.87866.14429-11.45178,3.71924-24.675,2.45605-35.21887-1.30725-10.91016-3.86084-18.42407-10.822-29.07043C819.81628,357.88188,826.03,339.48405,843.12609,339.3427ZM713.085,303.30009c21.53809,16.72,56.02307,14.28687,84.23962,24.87622-8.88757,19.79858-11.62512,35.167-4.08191,45.3125,5.851,7.86938,13.83252,4.61719,17.8363,15.63611,3.63269,9.99731,3.06921,60.29834-15.43762,51.6333,1.4043-33.86121-4.69165-57.899-34.08984-78.57349-12.5498-8.82556-32.55261-15.1748-48.26392-11.28906-13.436,3.323-25.92749,10.54919-33.88184,9.27332-4.42456-.70972-7.44531,2.48376-8.444-3.72412C669.71972,348.72368,695.39624,322.38041,713.085,303.30009ZM830.63989,635.64158c-18.75146-6.39282-10.2439-45.29468-21.70947-61.41791-6.00439-8.44348-32.73364-21.76514-28.70215-31.50854,5.843-14.12177,32.99878-10.12708,42.50146-4.69543,23.20068,13.26129,15.85449,29.74371,13.47925,52.95673C834.45385,608.12712,839.68041,638.72368,830.63989,635.64158Zm-97.024-117.66791c3.86926,2.94629,9.71985,7.0033,14.70789,23.30347,1.64844,5.3869-.87122,11.86456-.02588,18.621,2.06128,16.47607,4.3468,34.60974-7.91321,42.62585-10.4054,6.80359-22.57312-5.441-31.01367-11.72693-10.89795-8.11615-19.3573-19.07336-35.3573-26.40668-7.14624-3.27539,5.96558-8.53815,10.41675-11.01917,29.38342-16.37805,22.5-40.64752,9.25-62.89752-4.64624-14.32434,18.8031-19.82861,43.7356-20.84454,24.38892-.99384,50.76306-4.05688,51.5144,3.59094,1.57227,16.0036-20.97412,12.65753-40.428,9.89716-10.31348-1.46338-20.17749,2.325-23.822,8.10645C719.99462,498.657,721.96459,509.10167,733.61584,517.97368Zm-120.72876,131.427c-3.71057-10.62152-22.64587-10.75159-27.0094-23.94879-4.28735-12.96729,13.6001-18.06384,29.88721-16.12531,21.79956,2.59479,27.62915,14.417,53.78113,21.62292,23.49377,6.47351-11.49951,9.93774-19.24792,13.91882-14.20215,7.29688-25.85913,23.14777-23.11768,40.03418,3.92053,24.14886,42.78442,45.72736,61.48047,30.02728,10.844-9.10632,16.96594-20.19812,17.31348-29.44244.40332-10.72186-5.27185-20.30371-6.0918-25.8858-.377-2.567,2.27271-3.28815,5.01245-3.88531,9.73267,6.628,17.47852,14.6806,23.83777,20.733,6.70789,6.384,11.87317,10.88031,16.20007,22.511,3.35034,9.00494,3.36548,30.95807-7.44067,32.403-7.71216,1.03119-16.87561-7.98468-23.2019-4.658-7.532,3.96075-2.8772,20.82465-7.54834,29.24927-9.65637,17.415-54.509-8.62738-65.13745-16.84576-17.11353-13.23285-26.60242-25.18719-30.26758-46.34235C609.54931,682.44865,616.22753,658.96281,612.88708,649.40068Zm-91.45666,35.323c-13.21179,2.46216-19.1864,28.80756-31.25,29.25-5.78094.212-12.478-11.56384-13.5-19-1.70331-12.39362,6.01135-24.5473,22.50983-31.03918a144.24627,144.24627,0,0,1,27.74554-8.17963c11.98511-2.12073,19.41565-2.90155,32.84753-.50452,22.82031,4.07281,25.14294,49.21924,11.89709,72.97333-6.08252,10.90808-17.55566,15.101-24.75,14.75-4.36182-.21283-14.94336-4.63037-16.21387-6.5-5.34448-7.86426,12.20178-14.48163,14.21387-20.75C551.43041,695.47368,536.24023,681.96373,521.43041,684.72368Zm-73.8562-62.744c.28375,15.174,4.81433,20.81628.77289,27.244-2.21454,3.52209-11.40265,3.91962-14.5-2.16669-4.215-8.28253-.222-24.41327-9-31.83331-5.71405-4.83-23.51562,11.608-30.33337,8.83331-3.51819-1.43182-5.16663-12.33331-5.16663-12.33331s43.67273-41.0498,66.33331-62.66669c16.718,18.41675,31.90289,34.21057,51.83325,46.83337,6.292,3.98474,12.072,17.30017,7.16675,23.16663-5.86206,7.01086-31.40131,3.3194-31.66669-6.16663-.33331-11.91669-1.3988-18.93091-10.02191-21.1604-7.00531-1.81122-17.826-1.48871-21.5614,2.99371C446.64984,600.46037,447.38275,611.74364,447.57421,621.97966Zm13.89233-365.59778c13.3623,6.91187,28.45447-2.61987,45.50586-23.89014,8.51245,6.55737,14.99573,24.54614,11.53662,35.92883-1.54541,5.08582-37.76483,19.01978-51.33252,21.02515-13.101,1.9364-26.65094,4.28687-40.54773,1.65-13.37091-2.53687-16.18915-47.5553-12.99982-59.21521,3.869-14.14465,39.48645-33.48743,53.90375-20.65686C448.78094,228.98808,449.27911,250.07768,461.46655,256.38188Zm31.566,269.78656c1.71649-1.37042,8.57788-1.90039,8.57788-1.90039,21.767,25.18182,27.939,30.64917,73.34723,57.66492-25.98108,4.64288-71.3288-21.72467-85.52881-46.73517C488.91278,534.88981,491.13317,527.68486,493.03253,526.16844ZM460.3471,398.72368c-16.16669-15.83325-32.576-21.62891-36.16669-28.66675-4.16669-8.1665-3.09406-12.772,11.66669-8.457,31.2442,9.13354,70.50006,57.79053,70.50006,57.79053l-14.20093,12.49451S471.07244,408.20927,460.3471,398.72368Zm26-48.16675s-17.75775-10.07837-14.10339-17.657c5.16321-10.708,41.53693-19.67859,38.93671-9.42627-2.11914,8.35547-.1687,12.25842,2.47046,17.42578,4.62549,9.05688,14.43872,12.782,22.00439,9.65161,8.55151-3.53833,18.39185-34.41919,6.46765-55.59424,6.67517-3.02576,13.79248-5.73181,15.80725,4.78882-.79687,25.9209,14.417,37.478,33.771,18.93225,2.35938-2.26062,8.5271,9.23962,8.5271,9.23962s-46.01587,40.12891-68.54785,61.6394C515.08911,371.66728,486.3471,350.55693,486.3471,350.55693Zm96.30475-115.67212c-.738,11.44775-10.41565,27.96313-23.49414,35.14575-4.71069,2.58716-12.16187-6.998-12.144-12.47363.04-12.17358-.02075-28.262-4.43164-34.12549-13.23291-17.59045-38.61823-5.157-28.89331-32.93237,3.24841-9.27808,10.04-12.34045,16.92139-12.605,12.65991-.48657,24.00769,11.88135,34.991,28.275C573.37231,217.76811,583.45788,222.38237,582.65185,234.88481ZM440.59539,471.51549c4.4953,12.73627-20.24829,17.37488-20.24829,17.37488s-23.21478-31.86224-42.16669-42.83344c-26.40424-15.28516-56.29645-17.32544-56.29645-17.32544s.12677-10.58276,9.46313-21.00781c9.004-10.054,21.06653-10.396,35.16663-6C404.36328,413.524,423.06652,436.22368,440.59539,471.51549ZM558.9923,490.66417c-5.43762-14.57208,12.36841-31.92358,20.18811-25.69049,17.25,13.75,9.615,24.99249,33.4209,36.09918,22.8291,10.65082,43.18567,3.84418,54.24585,11.48413,5.87085,4.05548,4.34692,10.46808-6.66675,19.41669-24,19.5-47.73926,4.01776-68.02-9.99292C577.69836,511.98985,564.33178,504.97374,558.9923,490.66417Zm118.21985-18.63843c-14.43811,22.14459-55.43469,19.625-66.7666-4.56549-10.64893-22.73193-15.81958-33.15039,1.13794-46.4668,13.19214-10.35962,29.69275-39.32776,46.08313-35.90747C687.68872,391.351,657.30493,443.40764,677.21215,472.02574Zm54.30151-53.30206c20.16675,9.83325,18.75317-10.5686,30.66675-15.16675,3.90234-1.5061,6.855,15.86743,5.66675,20.3335-3.95593,14.8667-11.416,21.355-28,24.1665-15.0918,2.55872-31.78345-1.20435-40.3335-12.04333-12.871-16.317-4.26453-33.7644,8.16675-45.28992,3.89673-3.61279,11.68481-7.89795,14.728-8.06909,3.34717-.18823,8.28418,3.81909,8.28418,3.81909C715.6405,398.2017,720.79443,413.49687,731.51367,418.72368ZM646.4801,221.43583c8.59387,11.16675,14.96033,24.48413,23.53357,36.813-13.30444,12.61255-27.27246,20.738-40.998,31.9917-11.322,9.283-44.47046,11.36353-44.002-.67358.52612-13.5127,10.87817-20.50586,19.16357-31.29492a62.18626,62.18626,0,0,0,11.54333-29.136C616.75683,220.11467,640.5371,213.71379,646.4801,221.43583ZM596.67895,90.59233c6.71021-4.88928,20.0802-4.82361,26.70459-3.73975,4.52112,12.67969,5.95093,24.63794,7.15784,36.75952a291.36848,291.36848,0,0,1,1.82019,37.739c-.31958,11.4978-1.97559,18.2804-6.34082,24.51147-5.22668,7.46069-14.3374,13.26343-29.689,13.689-5.11133-18.40137-6.29175-23.47607-20.09033-39.12671,10.76733-12.45117,21.13416-19.78857,23.07373-34.21729C600.65649,116.22856,599.43041,102.3914,596.67895,90.59233Zm-121.99573-7.6875c10.90515-.42139,24.61029,3.41345,32.90051,3.9856,13.59668.93823,56.38062-4.09814,63.51453,12.28418,4.15808,9.54871,1.54016,17.74548-4.6853,26.94336-10.976,16.21631-29.19934,18.37646-42.76343,17.144-13.10266-1.19055-19.52325-17.34595-31.54321-26.26221-11.99512-8.89783-22.59534-5.54919-30.09259-13.77612C452.20922,92.46489,461.37518,83.419,474.68322,82.90483Zm-94.66949,5.4856c1.30981-2.82764,37.68469.33325,59.66669.33325,2.795,6.37256,4.12939,12.11523,1.7005,18.33325-11.506,2.49976-28.12848,11.95532-39.7005,8.8335C387.95263,112.18681,377.80328,93.16228,380.01373,88.39042Zm-6.99292,68.5271c13.00067-3.60205,22.30731-10.53357,32.65961-15.5271,6.78186,19.52954,15.566,28.82959,28,23.33325,8.91736-3.94189,2.861-13.887,11.16669-26,5.004-7.298,16.69336-7.28638,21.16663-4.83325,15.5,8.5,14.6521,39.28589,13.17218,50.1665-8.95227,8.064-33.00952-4.79541-44.67218-2.5-6.12195,1.20508-17.71265,3.33643-22.08032,6-8.55634,5.218-17.68652,12.29-29.0863,8.554-7.71765-2.52917-10.54456-15.84741-21.83337-16.88721-12.66663-1.16675-50.87732-6.20154-59.16827-16.86963-2.0343-2.61768-5.87268-9.932-2.96039-12.20349,5.462-4.26013,23.78009,5.28333,41.84869,8.05566C354.32531,160.21489,364.47174,159.28605,373.02081,156.91752ZM270.18041,92.72368c9.91425-2.33154,72.69629-10.69092,76,1.83325,2.78925,10.57324,9,20.5,13.9845,31.66675-18.949,18.56885-27.4845-9.708-63.65118-6.83325C276.95642,120.94487,267.68041,115.72368,270.18041,92.72368Zm-32,15.33325s9.81146,19.18579,14.4079,25.6189c6.63782,9.29028,20.9303,26.41162,24.75879,39.7146-6.78955,13.7063-17.98779,20.34167-32.33337,23.83325-22.60437,3.75244-45.47095-15.93506-43.5-34.16675,1.33337-12.33325-4.81024-12.40369-5.76306-21.83325C192.18041,105.89042,238.18041,108.05693,238.18041,108.05693Zm49,322.66675c2.9696,6.8075,8.86072,12.14893,11.82141,21.5,2.96307,9.35822-5.66614,17.10034-17.99915,22.05579a88.11088,88.11088,0,0,1-30.74542,5.95416c-18.31714.14124-37.16077-3.9726-43.82684-11.33246,11.25-12.92749,32.26746-10.83118,32.26746-10.83118s28.08838,5.634,29.48254-11.09631c1-12-5.541-17.57153-17.75-24.5,2.067-9.06079,2.86841-20.75183-1.25-32.25-6.26569-17.49316-10.24084-31.82275,7.75-45.75,9.79449,8.92749,13.69556,12.65759,25.36774,18.2666,13.30652,6.39453,16.50665,8.67163,31.70111,10.76563,1.83112,7.01,1.00708,10.77783-3.31885,13.21777-8.75909,4.94019-15.67749,9.81006-20.75,15.5C282.65917,410.38017,282.83142,420.75419,287.18041,430.72368Zm-29.75,99.375c-12.40466-14-35.625-2.625-35.625-2.625s-4.37933-5.44141-3.375-7.875c5.2948-12.82959,17.49213-19.37543,29.875-21.5,14.30981-2.4552,28.14087-2.05444,37.87073,11.768,5.8493,8.30963,7.02173,22.11951,5.12927,32.607-2.33905,12.9621-12.17517,18.47528-23,23.125-6.52771,2.80389-17-3.375-17-3.375S272.99761,547.668,257.43041,530.09868Zm-85.25-220.625c11.05255,15.68713,7.55438,33.66028,13.5,52.75,5.40527,17.35474,21.25,12.75,30.75,39.78381-11.3006,16.97961-27.092,11.57751-42.77649,1.02954-7.12933-4.79456-13.74536-18.94861-15.29858-28.06335-2.884-16.92407,5.18024-20.93665,6.82507-37.5C166.30572,326.14177,160.18041,309.47368,172.18041,309.47368Zm-59.95361-53.5188c3.55164-38.59888,12.42841-69.9812,27.45361-69.9812,24.5,0,52.74164,42.36963,66.75,77,9.94067,24.57446,44.71893,67.60046,9.75,86.62476-6.4549-25.56738-4.91669-51.82263-26.42029-70.03357-16.50641-13.97888-39.10376-14.04211-47.57971,4.40881-8.13153,17.70117-2.35687,29.64648-32,28.75C110.93041,297.47368,110.57812,273.87272,112.2268,255.95488ZM145.43041,604.2158c-14.7561-.58057-31.76337.6272-38.75-7.49261-3.85608-4.48157-2.95764-31.33429-3.08826-37.86853-.647-32.35828,4.75494-84.4165,6.42157-88.12256,19.48175-4.24384,39.40509,9.90894,43.66669,27.80878,6.477,27.2052-15.506,55.64355,9.00177,78.67017C170.96929,584.9973,157.10363,604.675,145.43041,604.2158Zm15.75-143.36713c-15.59235,2.38379-23.93652-10.23022-37.75-17.625-19.48615-10.4314-21.42011-11.47327-22.13379-35.72607-.44476-15.11426-1.01379-40.00244,4.13379-54.02393,5.20654-14.18213,17-15.66089,34.13727-21.25366,7.85687,16.67871-29.585,58.99048-18.335,81.74048,6.94617,14.04675,18.08923,10.91357,33.08459,14.234C175.891,432.9716,186.11791,457.03618,161.18041,460.84868Zm106.5,180.96045c-22.02057-14.25214-32.25-24.08545-78.66669-28.25214-7.83331-8.07513,22.41669-27.33331,4.16669-47.08331C178.41162,550.491,174.375,540.823,181.38525,501.2119c2.2934-4.24506,8.54517-6.48822,11.54517-1.73822,3.21594,33.97717,8.75812,65.9502,42.25,81.5,15.274,7.09149,33.683,9.40637,47.16669,6.41669,17.4137-3.86114,20.83331-22.66669,35.49365,1C317.84075,588.39036,284.31347,626.02531,267.68041,641.80913Zm32-390.83545c-1.96429,3.59058-8,13-7.92914,18.8125.08154,6.69067,7.42664,11.46924,7.02039,15.16553-.18469,1.68018-4.33185,5.26331-7.34564,4.63989-10.351-2.14111-25.23053-16.79785-33.08868-29.62134-7.53864-12.30225-9.48248-24.25964-7.39642-33.38586,2.61578-11.44373,24.00128-5.78625,34.11359-14.45251,10.60651-9.08972,10.69983-19.10034,26.72174-16.887,39.546,5.46362,67.151,33.10278,73.27191,73.12561,1.80878,11.82715,2.1,19.338,5.60138,26.974,2.80548,6.11792,7.67181,12.31628,17.03088,20.87915,10.05719,9.20166-.64313,21.25476-16.5,19.75-22.97119-2.17981-44.54773-7.85364-63.75-20.75-9.33057-6.26636-1.85114-8.33447,8.48468-9.85461,23.002-3.38318,32.25586-24.8822,28.97906-43.09583-2.28357-12.69324-9.62421-22.79089-26.96375-25.04956C323.71856,235.37236,306.48535,238.535,299.68041,250.97368ZM323.51373,537.057c7.83551-22.00262-9.33887-24.23523-1.58331-53.08331,4.01569-14.93707,16.50476-15.16449,30.73279-13.96527,14.51563,1.22357,21.56689,8.67365,28.01721,22.03314,11.24817,23.29657,10.2,29.9917-8.16669,45.18213-13.4422,11.11755-22.33331,27.25116-34.08331,27.25C309.17932,564.47081,318.86541,550.10979,323.51373,537.057Zm-2.423,148.84772c8.24066-7.80518,25.49457-31.27942,43.1507-44.09558,11.41333-8.28461,30.57086-.517,39.77094,10.70654-10.43024,10.86639-15.89,18.70215-21.582,32.04993-4.08075,9.56934-5.92651,20.47119-8.43939,30.90808-2.7713,11.50995-27.56061,13.25-27.56061,13.25C334.78027,713.998,328.25909,702.13609,321.09075,685.90471Zm72.33966,128.319c-3.41693,9.72894,3.713,46.83557-3.08331,54.18787-4.41083,4.77167-21.271,1.56995-24.65558-2.84137-2.4549-3.19952-2.912-24.76312-5.34528-47.31927-1.98859-18.43439-5.62543-37.53174-2.71271-47.80951,2.12494-7.49792,14.363-20.39978,22.38019-19.88318,7.15106.46069,9.20367,7.88623,16.12323,16.95026,6.34625,8.31317,17.89832,18.00458,17.54346,24.96521C413.20019,801.89348,396.47418,805.55717,393.43041,814.22368Zm30.99664-131.72827c4.04352-4.36206,11.80334-9.84882,17.53888-6.252,10.21539,6.40625-.04382,15.27423,1.66547,26.95087,2.3974,16.37787,15.76544,30.34668,31.88293,39.82635,12.46283,7.33044,7.43646,24.4538-4.93195,27.4975-24.87787,6.12183-46.38806-18.31525-54.9007-41.49475C408.22192,708.7108,411.20745,696.75627,424.42706,682.49541ZM531.54638,871.86424c-5.14136,0-31.73633.10669-57.12036.75989-24.14026.62122-47.1853,1.92792-49.64166-3.14191-6.56116-13.54175-7.23419-32.74615,1.48907-41.95441,7.27386-7.67828,20.2998-10.57806,32.47345-10.57806,27.18353,0,27.14594,14.87488,34.53229,20.68524,9.99243,7.86047,27.31006,12.44153,39.41394,16.27966C533.25476,860.92979,535.35571,864.60356,531.54638,871.86424Zm21.98059-.08264c-2.8219-5.74518-1.74768-12.13373.44421-18.19562,14.73169-2.39868,32.291-6.14728,46.61084-7.85577,12.72925-1.51886,20.63281,14.47375,20.63281,27.05139C596.97485,872.7816,575.48413,871.7816,553.527,871.7816Zm38.04944-63.1474c-6.28638-16.553-13.2522-27.66711-29.17761-23.756-15.35388,3.77063-14.233,20.71783-13.60168,35.41516-7.73608,2.095-22.68665-.09662-28.93005-4.73114-8.08716-6.00317-13.30981-19.1051-11.49158-29.29846,1.18628-6.65027,5.98877-22.39349,16.66772-19.02185,10.72339,3.386,20.6792,4.56433,30.32764,2.88446,14.71423-2.56177,28.71387-10.44519,43.63257-16.86389,6.93726-2.98474,11.87671-2.38379,17.6521,2.71436,9.94629,8.77979,21.23462,14.41315,33.025,18.85754,10.4801,3.95038,21.35681,6.96136,32.04065,10.40741,3.65308,1.17834,7.16638,2.83124,10.44507,4.14484.63965,5.32257-1.08948,8.81445-4.65735,14.32068-15.452-9.12018-30.94373-13.141-46.34143-12.56061C624.46923,791.77617,607.88183,797.81712,591.57641,808.6342Zm135.42517,58.69959s-46.60706,1.06372-73.38782,1.20349c-2.408-15.51605-4.96143-22.64783-12.28992-34.38721,12.725-9.32074,26.00256-13.1438,37.15442-4.99719,18.10229,13.22388,38.22705,5.61145,47.99829,13.70294C730.49316,846.182,727.00158,867.33378,727.00158,867.33378Zm71.67566-40.36938c-7.90405,17.31775-21.39246,31.92535-33.49683,23.75928-13.073-8.81958-15.76453-22.946-20.61719-36.24854-3.40332-9.32977-9.90222-17.238-13.06384-26.98969-4.87952-15.05017,14.38953-39.104,31.93909-23.03955,11.28857,10.33325,22.54614,17.05975,35.04443,25.61676,2.838,1.94318,5.56189,3.62476,6.41992,7.33429C806.75244,805.3939,803.38061,816.659,798.67724,826.9644Zm92.27222-163.48987c-.07861,21.687.32471,49.20209-2.49146,62.763-3.44165,16.57239-9.79346,33.85779-25.31836,37.63153-12.16016,2.95581-27.29419-13.00256-36.7063-23.10022a47.708,47.708,0,0,1-12.59277-24.78271c-3.22852-17.76611-7.99854-36.42358-16.109-52.03564-5.35-10.29834-12.71838-18.14178-20.04724-27.54846-9.74243-12.50446-8.00391-48.17834,1.49609-46.92834,11.28345,1.48468,5.62866,24.18683,11.5,37,6.51831,14.2251,20.81079,37.076,35.25,44,18.95959,9.09161,31.27417,1.45563,35-19.25,2.48682-13.81976,14.23132-25.691,25.00952-21.50458C890.41943,631.459,891.01342,645.87736,890.94946,663.47453Zm2.35486-77.27063c-.59436,15.23718-15.91309,20.884-26.95959,19.76978-9.91431-1-5.64038-35.1427,2.08569-45,14.5-18.5,2-44.25-19.75-45.5-10.6792-.61377-19.94946-6.016-24-14.34637-5.96313-12.26324-2.84216-18.05066,16.75-14.15363,5.04651,1.00378,11.73633,5.582,20.92017,10.7511,10.28174,5.78687,24.9292,12.31427,26.71765,15.39545,4.07556,7.02173,3.36218,20.32684,3.5271,34.10345C892.77355,562.11125,893.642,577.54942,893.30432,586.2039Z" style="fill:#fff;stroke:#000;stroke-miterlimit:10;opacity:0.25"/></svg>