<svg xmlns="http://www.w3.org/2000/svg" viewBox="0 0 1441 1057"><g style="opacity:0.5"><path d="M564.75,274.5c17.33954,2.25867,24.68018,12.35632,26.96375,25.04956,3.27679,18.21362-5.97705,39.71265-28.97906,43.09583-10.33582,1.52014-17.81525,3.58826-8.48468,9.85461,19.20227,12.89636,40.77881,18.57019,63.75,20.75,15.85687,1.50476,26.55719-10.54834,16.5-19.75-9.35907-8.56287-14.2254-14.76123-17.03088-20.87915-3.5014-7.636-3.7926-15.14685-5.60138-26.974-6.12091-40.02283-33.726-67.662-73.27191-73.12561-16.02191-2.21338-16.11523,7.79724-26.72174,16.887-10.1123,8.66626-31.4978,3.00879-34.11359,14.45251-2.08606,9.12622-.14221,21.08362,7.39642,33.38586,7.85815,12.82349,22.73767,27.48022,33.08868,29.62134,3.01379.62341,7.16095-2.95972,7.34564-4.63989.40625-3.69629-6.93884-8.47485-7.02039-15.16553C518.5,301.25,524.53571,291.84058,526.5,288.25,533.30493,275.81128,550.53815,272.64868,564.75,274.5Z" style="stroke:lime;stroke-miterlimit:10"/><path d="M838.15649,730.04272c3.66516,21.15515,13.15405,33.1095,30.26758,46.34235,10.62842,8.21838,55.48108,34.2608,65.13745,16.84576,4.67114-8.42462.01636-25.28851,7.54834-29.24927,6.32629-3.32672,15.48975,5.68915,23.2019,4.658,10.80615-1.44489,10.791-23.398,7.44067-32.403-4.3269-11.63074-9.49219-16.127-16.20007-22.511-6.35925-6.05237-14.1051-14.105-23.83777-20.733-2.73975.59717-5.3894,1.3183-5.01245,3.88531.81995,5.58209,6.49512,15.16394,6.0918,25.8858-.34753,9.24432-6.46948,20.33612-17.31348,29.44244-18.696,15.70007-57.55994-5.87842-61.48047-30.02728-2.74146-16.88641,8.91553-32.7373,23.11768-40.03418,7.74841-3.98108,42.7417-7.44531,19.24792-13.91882-26.152-7.20593-31.98157-19.02814-53.78113-21.62292-16.28711-1.93854-34.17456,3.158-29.88721,16.12531,4.36353,13.1972,23.29883,13.32727,27.0094,23.94879C843.04712,696.23914,836.3689,719.725,838.15649,730.04272Z" style="stroke:lime;stroke-miterlimit:10"/><path d="M369,321.25c8.476-18.45093,31.0733-18.3877,47.57971-4.40881,21.5036,18.21094,19.96539,44.46619,26.42029,70.03357,34.96893-19.02429.19067-62.05029-9.75-86.62476-14.00836-34.63037-42.25-77-66.75-77-15.02521,0-23.902,31.38232-27.45361,69.9812C337.39771,311.149,337.75,334.75,337,350,366.64313,350.89648,360.86847,338.95117,369,321.25Z" style="stroke:lime;stroke-miterlimit:10"/><path d="M1112.75952,666.99542c-10.7782-4.18646-22.5227,7.68481-25.00952,21.50458-3.72583,20.70563-16.0404,28.34161-35,19.25-14.43921-6.924-28.73169-29.7749-35.25-44-5.87134-12.81317-.21655-35.51532-11.5-37-9.5-1.25-11.23853,34.42389-1.49609,46.92834,7.32886,9.40668,14.69727,17.25012,20.04724,27.54846,8.11047,15.61206,12.88049,34.26953,16.109,52.03564a47.708,47.708,0,0,0,12.59277,24.78271c9.41211,10.09766,24.54614,26.056,36.7063,23.10022,15.5249-3.77374,21.87671-21.05914,25.31836-37.63153,2.81616-13.56091,2.41284-41.076,2.49146-62.763C1117.833,683.15369,1117.239,668.73535,1112.75952,666.99542Z" style="stroke:lime;stroke-miterlimit:10"/><path d="M509.16669,624.66669C495.683,627.65637,477.274,625.34149,462,618.25c-33.49188-15.5498-39.03406-47.52283-42.25-81.5-3-4.75-9.25177-2.50684-11.54517,1.73822C401.19458,578.0993,405.2312,587.76733,420,603.75c18.25,19.75-12,39.00818-4.16669,47.08331C462.25,655,472.47943,664.83331,494.5,679.08545c16.63306-15.78381,50.16034-53.41876,50.16034-53.41876C530,602,526.58038,620.80554,509.16669,624.66669Z" style="stroke:lime;stroke-miterlimit:10"/><path d="M465.51746,495.34631S444.5,493.25,433.25,506.17749c6.66608,7.35986,25.5097,11.47369,43.82684,11.33246a88.11088,88.11088,0,0,0,30.74542-5.95416c12.333-4.95544,20.96222-12.69757,17.99915-22.05579C522.86072,480.14893,516.9696,474.8075,514,468c-4.349-9.96948-4.52124-20.34351,2.75-28.5,5.07251-5.68994,11.99091-10.55981,20.75-15.5,4.32593-2.43994,5.15-6.20776,3.31885-13.21777-15.19446-2.094-18.39459-4.37109-31.70111-10.76562-11.67218-5.609-15.57324-9.33911-25.36774-18.2666-17.99084,13.92725-14.01569,28.25684-7.75,45.75,4.11841,11.49817,3.317,23.18921,1.25,32.25,12.209,6.92847,18.75,12.5,17.75,24.5C493.60584,500.98035,465.51746,495.34631,465.51746,495.34631Z" style="stroke:lime;stroke-miterlimit:10"/><path d="M911.25,590.64752c-4.45117,2.481-17.563,7.74377-10.41675,11.01917,16,7.33331,24.45935,18.29053,35.3573,26.40668,8.44055,6.28595,20.60828,18.53052,31.01367,11.72693,12.26-8.01611,9.97449-26.14978,7.91321-42.62585-.84534-6.75641,1.67432-13.23407.02588-18.621-4.988-16.30017-10.83862-20.35718-14.70789-23.30347-11.65125-8.872-13.62122-19.31665-8.93542-26.75,3.64453-5.78149,13.50854-9.56982,23.822-8.10645,19.45386,2.76038,42.00024,6.10645,40.428-9.89716-.75134-7.64783-27.12549-4.58478-51.5144-3.59094-24.9325,1.01593-48.38184,6.5202-43.7356,20.84454C933.75,550,940.63342,574.26947,911.25,590.64752Z" style="stroke:lime;stroke-miterlimit:10"/><path d="M380.5,535.8172c-4.2616-17.89984-24.18494-32.05261-43.66669-27.80878-1.66663,3.70605-7.06854,55.76428-6.42157,88.12256.13062,6.53424-.76782,33.387,3.08826,37.86853,6.98663,8.11981,23.9939,6.912,38.75,7.49261,11.67322.45917,25.53888-19.21851,17.25177-27.00476C364.994,591.46075,386.977,563.0224,380.5,535.8172Z" style="stroke:lime;stroke-miterlimit:10"/><path d="M1066.48267,438.03113c1.26318,10.54382-2.31177,23.76709-2.45606,35.21887-.16113,12.7843,7.44287,21.54785,19.561,28.87866,7.271,4.3985,16.85681,11.14368,25.28076,11.39484,3.51221-3.58984,2.31982-8.14166,2.33643-12.32532.1294-32.35089,2.3678-77.11469.73377-109.97186-.995-20.0083-22.276-14.77026-41.99292-14.6073-17.09607.14136-23.30981,18.53918-14.285,32.34167C1062.62183,419.60706,1065.17542,427.121,1066.48267,438.03113Z" style="stroke:lime;stroke-miterlimit:10"/><path d="M914.32849,840.98364c3.56787-5.50623,5.297-8.99811,4.65735-14.32068-3.27869-1.3136-6.792-2.96649-10.44507-4.14484-10.68384-3.446-21.56055-6.457-32.04065-10.40741-11.79041-4.4444-23.07874-10.07776-33.025-18.85754-5.77539-5.09814-10.71484-5.6991-17.6521-2.71436-14.9187,6.4187-28.91833,14.30212-43.63257,16.86389-9.64844,1.67987-19.60425.50153-30.32764-2.88446-10.679-3.37164-15.48145,12.37158-16.66772,19.02185-1.81824,10.19336,3.40442,23.29529,11.49158,29.29846,6.24341,4.63452,21.194,6.82617,28.93005,4.73114-.63135-14.69733-1.7522-31.64453,13.60168-35.41516,15.92542-3.91113,22.89124,7.203,29.17761,23.756,16.30542-10.81708,32.89282-16.858,49.59106-17.48749C883.38477,827.84265,898.87646,831.86346,914.32849,840.98364Z" style="stroke:lime;stroke-miterlimit:10"/><path d="M906.22534,397.44531c7.95435,1.27588,20.4458-5.95032,33.88184-9.27332,15.7113-3.88574,35.71411,2.4635,48.26392,11.28906,29.39819,20.67444,35.49414,44.71228,34.08984,78.57349,18.50684,8.665,19.07031-41.636,15.43762-51.6333-4.00379-11.01892-11.98535-7.76672-17.8363-15.63611-7.54321-10.14551-4.80566-25.51392,4.08191-45.3125-28.21655-10.58936-62.70154-8.15625-84.23962-24.87622C922.21582,359.65674,896.53931,386,897.78137,393.72119,898.78,399.92908,901.80078,396.7356,906.22534,397.44531Z" style="stroke:lime;stroke-miterlimit:10"/><path d="M568.05334,195.48254c-18.0686-2.77234-36.38666-12.3158-41.84869-8.05566-2.91229,2.27148.92609,9.58582,2.96039,12.20349,8.291,10.66809,46.50165,15.70288,59.16827,16.86963,11.28882,1.03979,14.11572,14.358,21.83337,16.88721,11.39978,3.73608,20.53-3.33594,29.0863-8.554,4.36768-2.66357,15.95837-4.79492,22.08032-6,11.66266-2.29541,35.71991,10.564,44.67218,2.5,1.47992-10.88062,2.32782-41.6665-13.17218-50.1665C688.36,168.71362,676.67065,168.702,671.66669,176c-8.30566,12.113-2.24933,22.05811-11.16669,26-12.434,5.49634-21.21814-3.80371-28-23.33325-10.35229,4.99353-19.65894,11.925-32.65961,15.5271C591.29132,196.56238,581.1449,197.49121,568.05334,195.48254Z" style="stroke:lime;stroke-miterlimit:10"/><path d="M806,502.25c-7.8197-6.23309-25.62573,11.11841-20.18811,25.69049,5.33948,14.30957,18.70605,21.32568,33.16809,31.31659C839.26074,573.26776,863,588.75,887,569.25c11.01367-8.94861,12.5376-15.36121,6.66675-19.41669-11.06018-7.64-31.41675-.83331-54.24585-11.48413C815.615,527.24249,823.25,516,806,502.25Z" style="stroke:lime;stroke-miterlimit:10"/><path d="M593.33331,439c-14.1001-4.396-26.16266-4.054-35.16663,6-9.33636,10.425-9.46313,21.00781-9.46313,21.00781S578.59576,468.0481,605,483.33325c18.9519,10.97119,42.16669,42.83344,42.16669,42.83344s24.74359-4.63861,20.24829-17.37488C649.88611,473.5,631.18286,450.80029,593.33331,439Z" style="stroke:lime;stroke-miterlimit:10"/><path d="M599.33331,574.5C617.7,559.30957,618.74817,552.61444,607.5,529.31787c-6.45032-13.3595-13.50159-20.80957-28.01721-22.03314-14.228-1.19922-26.7171-.9718-30.73279,13.96527-7.75555,28.84808,9.41882,31.08069,1.58331,53.08331C545.685,587.38611,535.9989,601.74713,565.25,601.75,577,601.75116,585.89111,585.61755,599.33331,574.5Z" style="stroke:lime;stroke-miterlimit:10"/><path d="M884.48621,422.3623c-16.39038-3.42029-32.891,25.54785-46.08313,35.90747-16.95752,13.31641-11.78687,23.73486-1.13794,46.4668,11.33191,24.19049,52.32849,26.71008,66.7666,4.56549C884.12451,480.684,914.5083,428.62732,884.48621,422.3623Z" style="stroke:lime;stroke-miterlimit:10"/><path d="M694.35229,248.5c-14.4173-12.83057-50.03479,6.51221-53.90375,20.65686-3.18933,11.65991-.37109,56.67834,12.99982,59.21521,13.89679,2.63684,27.44678.28638,40.54773-1.65,13.56769-2.00537,49.78711-15.93933,51.33252-21.02515,3.45911-11.38269-3.02417-29.37146-11.53662-35.92883-17.05139,21.27026-32.14355,30.802-45.50586,23.89014C676.09869,287.354,675.60052,266.2644,694.35229,248.5Z" style="stroke:lime;stroke-miterlimit:10"/><path d="M720.09875,874.91132c-7.38635-5.81036-7.34875-20.68524-34.53229-20.68524-12.17364,0-25.19958,2.89978-32.47345,10.57806-8.72327,9.20825-8.05023,28.41266-1.48907,41.95441,2.45636,5.06982,25.5014,3.76312,49.64166,3.14191,25.384-.6532,51.979-.75989,57.12036-.75989,3.80933-7.26068,1.70837-10.93445,1.14673-17.94959C747.40881,887.35284,730.09119,882.77179,720.09875,874.91132Z" style="stroke:lime;stroke-miterlimit:10"/><path d="M757.53613,773.75c1.27051,1.86963,11.85205,6.28717,16.21387,6.5,7.19434.351,18.66748-3.84192,24.75-14.75,13.24585-23.75409,10.92322-68.90051-11.89709-72.97333-13.43188-2.397-20.86243-1.61621-32.84753.50452a144.24627,144.24627,0,0,0-27.74554,8.17963C709.51135,707.7027,701.79669,719.85638,703.5,732.25c1.022,7.43616,7.71906,19.212,13.5,19,12.0636-.44244,18.03821-26.78784,31.25-29.25,14.80981-2.75995,30,10.75,23.5,31C769.73792,759.26837,752.19165,765.88574,757.53613,773.75Z" style="stroke:lime;stroke-miterlimit:10"/><path d="M699.8114,629.00629c8.62311,2.22949,9.6886,9.24371,10.02191,21.1604.26538,9.486,25.80463,13.17749,31.66669,6.16663,4.90527-5.86646-.87476-19.18188-7.16675-23.16663-19.93036-12.6228-35.1153-28.41663-51.83325-46.83337C659.83942,607.9502,616.16669,649,616.16669,649s1.64844,10.90149,5.16663,12.33331C628.15106,664.108,645.95264,647.67,651.66669,652.5c8.778,7.42,4.785,23.55078,9,31.83331,3.09735,6.0863,12.28546,5.68878,14.5,2.16669,4.04144-6.42773-.48914-12.07-.77289-27.244-.19147-10.236-.92438-21.51929,3.8562-27.256C681.98535,627.51758,692.80609,627.19507,699.8114,629.00629Z" style="stroke:lime;stroke-miterlimit:10"/><path d="M718.9259,154.27612c12.02,8.91626,18.44055,25.07166,31.54321,26.26221,13.56409,1.23242,31.78748-.92773,42.76343-17.144,6.22546-9.19788,8.84338-17.39465,4.6853-26.94336C790.78394,120.0686,748,125.105,734.40332,124.16675c-8.29022-.57214-21.99536-4.407-32.90051-3.9856-13.308.51416-22.474,9.56006-12.66949,20.31885C696.33057,148.72693,706.93079,145.3783,718.9259,154.27612Z" style="stroke:lime;stroke-miterlimit:10"/><path d="M842.54016,266.41235a62.18626,62.18626,0,0,1-11.54333,29.136c-8.2854,10.78906-18.63745,17.78223-19.16357,31.29492-.46851,12.03711,32.67993,9.95654,44.002.67358,13.72559-11.25366,27.6936-19.37915,40.998-31.9917-8.57324-12.32886-14.9397-25.64624-23.53357-36.813C867.35669,250.99011,843.57642,257.391,842.54016,266.41235Z" style="stroke:lime;stroke-miterlimit:10"/><path d="M1025.30249,827.339c-12.49829-8.557-23.75586-15.28351-35.04443-25.61676-17.54956-16.06445-36.8186,7.98938-31.93909,23.03955,3.16162,9.75171,9.66052,17.65991,13.06384,26.98969C976.23547,865.054,978.927,879.18042,992,888c12.10437,8.16608,25.59277-6.44153,33.49683-23.75928,4.70337-10.30542,8.07519-21.5705,6.22559-29.56744C1030.86438,830.96375,1028.1405,829.28217,1025.30249,827.339Z" style="stroke:lime;stroke-miterlimit:10"/><path d="M803.061,197.70117c13.79858,15.65063,14.979,20.72534,20.09033,39.12671,15.35156-.42554,24.46228-6.22827,29.689-13.689,4.36523-6.23108,6.02124-13.01367,6.34082-24.51147a291.36848,291.36848,0,0,0-1.82019-37.739c-1.20691-12.12158-2.63672-24.07983-7.15784-36.75952-6.62439-1.08386-19.99438-1.14954-26.70459,3.73975,2.75146,11.79907,3.97754,25.63623,2.63623,35.61523C824.19519,177.9126,813.82837,185.25,803.061,197.70117Z" style="stroke:lime;stroke-miterlimit:10"/><path d="M818.52075,355.95422c-19.354,18.54578-34.56787,6.98865-33.771-18.93225-2.01477-10.52063-9.13208-7.81458-15.80725-4.78882,11.92419,21.175,2.08386,52.05591-6.46765,55.59424-7.56567,3.13037-17.37891-.59473-22.00439-9.65161-2.63916-5.16736-4.5896-9.07031-2.47046-17.42578,2.60022-10.25232-33.7735-1.28174-38.93671,9.42627-3.65436,7.57861,14.10339,17.657,14.10339,17.657s28.742,21.11035,45.33331,39c22.532-21.5105,68.54785-61.6394,68.54785-61.6394S820.88013,353.6936,818.52075,355.95422Z" style="stroke:lime;stroke-miterlimit:10"/><path d="M428.33331,200.33325c-1.97095,18.23169,20.89563,37.91919,43.5,34.16675,14.34558-3.49158,25.54382-10.127,32.33337-23.83325-3.82849-13.303-18.121-30.42432-24.75879-39.7146C474.81146,164.519,465,145.33325,465,145.33325s-46-2.1665-42.42975,33.16675C423.52307,187.92957,429.66669,188,428.33331,200.33325Z" style="stroke:lime;stroke-miterlimit:10"/><path d="M606.83331,787.83453c-8.01715-.5166-20.25525,12.38525-22.38019,19.88318-2.91272,10.27777.72412,29.37512,2.71271,47.80951,2.43329,22.55615,2.89038,44.11975,5.34528,47.31927,3.38458,4.41132,20.24475,7.613,24.65558,2.84137,6.79626-7.35229-.33362-44.45892,3.08331-54.18787,3.04376-8.6665,19.76978-12.3302,20.25-21.75.35486-6.96063-11.1972-16.652-17.54346-24.96521C616.037,795.72076,613.98438,788.29523,606.83331,787.83453Z" style="stroke:lime;stroke-miterlimit:10"/><path d="M350.25,480.5c13.81348,7.39478,22.15765,20.00879,37.75,17.625,24.9375-3.8125,14.71063-27.87708-6.8631-32.65417-14.99536-3.32043-26.13843-.18726-33.08459-14.234-11.25-22.75,26.19183-65.06177,18.335-81.74048C349.25,375.08911,337.45654,376.56787,332.25,390.75c-5.14758,14.02148-4.57855,38.90967-4.13379,54.02393C328.8299,469.02673,330.76385,470.0686,350.25,480.5Z" style="stroke:lime;stroke-miterlimit:10"/><path d="M600.81061,752.75c2.51288-10.43689,4.35864-21.33875,8.43939-30.90808,5.692-13.34778,11.15173-21.18353,21.582-32.04993-9.20007-11.22357-28.35761-18.99115-39.77094-10.70654-17.65613,12.81616-34.91,36.29041-43.1507,44.09558C555.07867,739.41241,561.59985,751.27435,573.25,766,573.25,766,598.03931,764.25995,600.81061,752.75Z" style="stroke:lime;stroke-miterlimit:10"/><path d="M697.402,807.79449c12.36841-3.0437,17.39478-20.16705,4.93195-27.4975-16.11749-9.47968-29.48553-23.44849-31.88293-39.82636-1.70929-11.67664,8.54993-20.54462-1.66547-26.95087-5.73553-3.59686-13.49536,1.88989-17.53888,6.252-13.2196,14.26086-16.20514,26.21539-8.74536,46.528C651.01392,789.47925,672.52411,813.91632,697.402,807.79449Z" style="stroke:lime;stroke-miterlimit:10"/><path d="M385.17493,412.25c1.55322,9.11475,8.16925,23.2688,15.29858,28.06335,15.68445,10.548,31.47589,15.95007,42.77649-1.02954C433.75,412.25,417.90527,416.85474,412.5,399.5c-5.94562-19.08972-2.44745-37.06287-13.5-52.75-12,0-5.87469,16.66809-7,28C390.35516,391.31335,382.29089,395.32593,385.17493,412.25Z" style="stroke:lime;stroke-miterlimit:10"/><path d="M757.42969,215.17041c-6.88135.26453-13.673,3.3269-16.92139,12.605-9.72491,27.77539,15.6604,15.34192,28.89331,32.93237,4.41089,5.86353,4.47168,21.9519,4.43164,34.12549-.01782,5.47559,7.43335,15.06079,12.144,12.47363,13.07849-7.18262,22.7561-23.698,23.49414-35.14575.806-12.50244-9.27954-17.1167-17.05078-28.7157C781.43738,227.05176,770.0896,214.68384,757.42969,215.17041Z" style="stroke:lime;stroke-miterlimit:10"/><path d="M1075.5,552.75c21.75,1.25,34.25,27,19.75,45.5-7.72607,9.8573-12,44-2.08569,45,11.04651,1.1142,26.36523-4.53259,26.95959-19.76978.33765-8.65448-.53076-24.09265-.709-38.98022-.16492-13.77661.54846-27.08173-3.5271-34.10345-1.78845-3.08118-16.43591-9.60858-26.71765-15.39545-9.18384-5.16907-15.87366-9.74731-20.92017-10.7511-19.59216-3.897-22.71313,1.89038-16.75,14.15363C1055.55054,546.734,1064.8208,552.13623,1075.5,552.75Z" style="stroke:lime;stroke-miterlimit:10"/><path d="M905.29785,866.4292c-11.15186-8.14661-24.42944-4.32355-37.15442,4.99719,7.32849,11.73938,9.882,18.87115,12.28992,34.38721,26.78076-.13977,73.38782-1.20349,73.38782-1.20349s3.49158-21.15179-.525-24.478C943.5249,872.04065,923.40015,879.65308,905.29785,866.4292Z" style="stroke:lime;stroke-miterlimit:10"/><path d="M957.51221,423.75s-4.937-4.00732-8.28418-3.81909c-3.04321.17114-10.8313,4.4563-14.728,8.06909-12.43127,11.52551-21.03772,28.9729-8.16675,45.28992,8.55,10.839,25.2417,14.60205,40.3335,12.04334,16.584-2.81152,24.04407-9.2998,28-24.1665,1.18823-4.46606-1.7644-21.8396-5.66675-20.3335-11.91357,4.59814-10.5,25-30.66675,15.16675C947.614,450.77319,942.46008,435.478,957.51221,423.75Z" style="stroke:lime;stroke-miterlimit:10"/><path d="M478.125,599.5s10.47229,6.17889,17,3.375c10.82483-4.64972,20.66095-10.1629,23-23.125,1.89246-10.48749.72-24.29736-5.12927-32.607-9.72986-13.82245-23.56091-14.22321-37.87073-11.768-12.38287,2.12457-24.5802,8.67041-29.875,21.5-1.00433,2.43359,3.375,7.875,3.375,7.875s23.22034-11.375,35.625,2.625C499.8172,584.94434,478.125,599.5,478.125,599.5Z" style="stroke:lime;stroke-miterlimit:10"/><path d="M523.33331,156.66675C559.5,153.792,568.03552,182.06885,586.9845,163.5,582,152.33325,575.78925,142.40649,573,131.83325c-3.30371-12.52417-66.08575-4.16479-76-1.83325C494.5,153,503.776,158.22119,523.33331,156.66675Z" style="stroke:lime;stroke-miterlimit:10"/><path d="M1049.54932,575.296c-9.50269-5.43164-36.65845-9.42633-42.50146,4.69543-4.0315,9.74341,22.69775,23.06506,28.70215,31.50854,11.46558,16.12323,2.958,55.02509,21.70947,61.41791,9.04053,3.08209,3.814-27.51447,5.56909-44.66516C1065.40381,605.03973,1072.75,588.55731,1049.54932,575.296Z" style="stroke:lime;stroke-miterlimit:10"/><path d="M662.66669,398.87622c-14.76074-4.31494-15.83337.29053-11.66669,8.457,3.59064,7.03784,20,12.8335,36.16669,28.66675,10.72534,9.4856,31.79913,33.16125,31.79913,33.16125l14.20093-12.49451S693.91089,408.00977,662.66669,398.87622Z" style="stroke:lime;stroke-miterlimit:10"/><path d="M628.5,153.16675c11.572,3.12183,28.19452-6.33374,39.7005-8.8335,2.42889-6.218,1.09448-11.96069-1.7005-18.33325-21.982,0-58.35687-3.16089-59.66669-.33325C604.62286,130.4386,614.77222,149.46313,628.5,153.16675Z" style="stroke:lime;stroke-miterlimit:10"/><path d="M827.40161,883.00653c-14.31982,1.7085-31.87915,5.45709-46.61084,7.85577-2.19189,6.06189-3.26611,12.45044-.44421,18.19562,21.95715,0,43.44788,1,67.68787,1C848.03442,897.48029,840.13086,881.48767,827.40161,883.00653Z" style="stroke:lime;stroke-miterlimit:10"/><path d="M716.24841,572.47412c14.2,25.0105,59.54773,51.37805,85.52881,46.73517C756.369,592.19354,750.197,586.7262,728.43,561.54437c0,0-6.86139.53-8.57788,1.90039C717.95276,564.96118,715.73236,572.16614,716.24841,572.47412Z" style="stroke:lime;stroke-miterlimit:10"/>
<path d="M.5.5v1056h1440V.5ZM233.29907,730.48846c.45831-8.49292,18.888-26.0827,19.28339-34.74646,0,0,9.22156-369.75641,9.67114-412.83893,2.93542-64.2085,21.98254-123.49512,69.4411-166.15088,72.63709-65.28625,165.41412-59.38745,256.39453-59.45691C614.45331,57.27515,889.91479,54.52,889.91479,54.52c13.13147-.47632,26.203-14.03735,39.10254-14.66235L1133.62476,37.781c2.42847,28.502,28.31763,50.88208,57.44824,50.88208l6.209,212.5874c.31336,11.01172-12.25415,28.2041-12.34082,39.51709-.84009,109.71472,7.377,226.08044,7.57666,311.64008.16382,70.184-7.68408,120.2934-8.137,123.44574-7.75977,54.00635-31.42261,103.03619-71.60718,139.50775-44.6676,40.54047-116.93091,62.57855-177.44983,62.37128-37.5083-.12848-390.66309,4.68018-390.66309,4.68018-13.889.67993-27.6449,21.4538-41.17883,22.29919l-228.42645,5.46515s.44452-5.639.44452-8.0163c0-28.19928-20.9729-49.4856-48.16834-53.14966Z" style="stroke:lime;stroke-miterlimit:10"/></g></svg>